<svg width="2357" height="1158" viewBox="0 0 2357 1158" fill="none" xmlns="http://www.w3.org/2000/svg">
<mask id="path-1-outside-1_126_11" maskUnits="userSpaceOnUse" x="436" y="616" width="1481" height="227" fill="black">
<rect fill="white" x="436" y="616" width="1481" height="227"/>
<path d="M646.049 729.909C646.049 753.915 641.432 774.263 632.199 790.953C622.966 807.643 610.466 820.321 594.699 828.986C579.003 837.651 561.39 841.983 541.858 841.983C522.256 841.983 504.607 837.615 488.911 828.879C473.215 820.143 460.75 807.466 451.517 790.847C442.355 774.156 437.775 753.844 437.775 729.909C437.775 705.903 442.355 685.555 451.517 668.865C460.75 652.175 473.215 639.497 488.911 630.832C504.607 622.168 522.256 617.835 541.858 617.835C561.39 617.835 579.003 622.168 594.699 630.832C610.466 639.497 622.966 652.175 632.199 668.865C641.432 685.555 646.049 705.903 646.049 729.909ZM592.142 729.909C592.142 715.705 590.118 703.702 586.07 693.901C582.093 684.099 576.34 676.678 568.811 671.635C561.354 666.592 552.37 664.071 541.858 664.071C531.418 664.071 522.434 666.592 514.905 671.635C507.377 676.678 501.588 684.099 497.54 693.901C493.563 703.702 491.574 715.705 491.574 729.909C491.574 744.114 493.563 756.116 497.54 765.918C501.588 775.719 507.377 783.141 514.905 788.183C522.434 793.226 531.418 795.747 541.858 795.747C552.37 795.747 561.354 793.226 568.811 788.183C576.34 783.141 582.093 775.719 586.07 765.918C590.118 756.116 592.142 744.114 592.142 729.909ZM862.526 620.818V839H817.782L730.956 713.077H729.571V839H676.837V620.818H722.221L808.087 746.528H809.898V620.818H862.526ZM1158.18 699.866H1104.92C1104.21 694.398 1102.75 689.462 1100.55 685.058C1098.35 680.655 1095.44 676.891 1091.81 673.766C1088.19 670.641 1083.89 668.261 1078.92 666.628C1074.02 664.923 1068.59 664.071 1062.62 664.071C1052.04 664.071 1042.91 666.663 1035.24 671.848C1027.64 677.033 1021.79 684.526 1017.67 694.327C1013.62 704.128 1011.59 715.989 1011.59 729.909C1011.59 744.398 1013.65 756.543 1017.77 766.344C1021.96 776.074 1027.82 783.425 1035.35 788.396C1042.95 793.297 1051.93 795.747 1062.3 795.747C1068.13 795.747 1073.42 795.001 1078.18 793.51C1083.01 792.018 1087.23 789.852 1090.86 787.011C1094.55 784.099 1097.57 780.584 1099.91 776.464C1102.33 772.274 1103.99 767.551 1104.92 762.295L1158.18 762.615C1157.26 772.274 1154.46 781.791 1149.77 791.166C1145.15 800.541 1138.8 809.099 1130.7 816.841C1122.6 824.511 1112.73 830.619 1101.08 835.165C1089.51 839.71 1076.22 841.983 1061.24 841.983C1041.49 841.983 1023.81 837.651 1008.18 828.986C992.631 820.25 980.344 807.537 971.324 790.847C962.304 774.156 957.794 753.844 957.794 729.909C957.794 705.903 962.375 685.555 971.537 668.865C980.699 652.175 993.092 639.497 1008.72 630.832C1024.34 622.168 1041.85 617.835 1061.24 617.835C1074.45 617.835 1086.66 619.682 1097.89 623.375C1109.11 626.997 1118.98 632.324 1127.5 639.355C1136.03 646.315 1142.95 654.874 1148.28 665.03C1153.6 675.186 1156.91 686.798 1158.18 699.866ZM1188.36 839V620.818H1241.09V708.389H1327.07V620.818H1379.7V839H1327.07V751.322H1241.09V839H1188.36ZM1459.97 839H1403.29L1476.91 620.818H1547.11L1620.73 839H1564.05L1512.81 675.79H1511.11L1459.97 839ZM1452.41 753.134H1570.87V793.19H1452.41V753.134ZM1696.95 620.818V839H1644.22V620.818H1696.95ZM1915.75 620.818V839H1871L1784.18 713.077H1782.79V839H1730.06V620.818H1775.44L1861.31 746.528H1863.12V620.818H1915.75Z"/>
</mask>
<path d="M632.199 790.953L631.324 790.469L631.324 790.469L632.199 790.953ZM594.699 828.986L594.218 828.109L594.216 828.11L594.699 828.986ZM488.911 828.879L489.397 828.005L489.397 828.005L488.911 828.879ZM451.517 790.847L450.641 791.328L450.643 791.332L451.517 790.847ZM451.517 668.865L450.642 668.381L450.641 668.384L451.517 668.865ZM488.911 630.832L489.394 631.708L489.394 631.708L488.911 630.832ZM594.699 630.832L594.216 631.708L594.218 631.709L594.699 630.832ZM632.199 668.865L631.324 669.349L631.324 669.349L632.199 668.865ZM586.07 693.901L585.143 694.277L585.146 694.282L586.07 693.901ZM568.811 671.635L568.251 672.463L568.255 672.466L568.811 671.635ZM514.905 671.635L515.462 672.466L515.462 672.466L514.905 671.635ZM497.54 693.901L496.616 693.519L496.614 693.525L497.54 693.901ZM497.54 765.918L496.614 766.294L496.616 766.299L497.54 765.918ZM514.905 788.183L515.462 787.352L515.462 787.352L514.905 788.183ZM568.811 788.183L568.255 787.352L568.251 787.355L568.811 788.183ZM586.07 765.918L585.146 765.536L585.143 765.542L586.07 765.918ZM646.049 729.909H645.049C645.049 753.788 640.457 773.96 631.324 790.469L632.199 790.953L633.074 791.437C642.408 774.565 647.049 754.041 647.049 729.909H646.049ZM632.199 790.953L631.324 790.469C622.177 807.005 609.809 819.541 594.218 828.109L594.699 828.986L595.181 829.862C611.124 821.101 623.756 808.282 633.074 791.437L632.199 790.953ZM594.699 828.986L594.216 828.11C578.681 836.686 561.236 840.983 541.858 840.983V841.983V842.983C561.543 842.983 579.326 838.615 595.183 829.861L594.699 828.986ZM541.858 841.983V840.983C522.41 840.983 504.931 836.651 489.397 828.005L488.911 828.879L488.425 829.753C504.283 838.579 522.102 842.983 541.858 842.983V841.983ZM488.911 828.879L489.397 828.005C473.874 819.366 461.539 806.827 452.392 790.361L451.517 790.847L450.643 791.332C459.961 808.105 472.556 820.921 488.425 829.753L488.911 828.879ZM451.517 790.847L452.394 790.365C443.331 773.856 438.775 753.718 438.775 729.909H437.775H436.775C436.775 753.969 441.38 774.457 450.641 791.328L451.517 790.847ZM437.775 729.909H438.775C438.775 706.029 443.331 685.856 452.394 669.346L451.517 668.865L450.641 668.384C441.379 685.255 436.775 705.778 436.775 729.909H437.775ZM451.517 668.865L452.392 669.349C461.54 652.813 473.874 640.276 489.394 631.708L488.911 630.832L488.428 629.957C472.556 638.719 459.96 651.537 450.642 668.381L451.517 668.865ZM488.911 630.832L489.394 631.708C504.929 623.132 522.409 618.835 541.858 618.835V617.835V616.835C522.103 616.835 504.285 621.203 488.428 629.957L488.911 630.832ZM541.858 617.835V618.835C561.236 618.835 578.681 623.132 594.216 631.708L594.699 630.832L595.183 629.957C579.326 621.203 561.543 616.835 541.858 616.835V617.835ZM594.699 630.832L594.218 631.709C609.809 640.277 622.177 652.814 631.324 669.349L632.199 668.865L633.074 668.381C623.756 651.536 611.124 638.717 595.181 629.956L594.699 630.832ZM632.199 668.865L631.324 669.349C640.457 685.858 645.049 706.03 645.049 729.909H646.049H647.049C647.049 705.777 642.408 685.253 633.074 668.381L632.199 668.865ZM592.142 729.909H593.142C593.142 715.616 591.106 703.475 586.994 693.519L586.07 693.901L585.146 694.282C589.13 703.929 591.142 715.794 591.142 729.909H592.142ZM586.07 693.901L586.997 693.525C582.957 683.57 577.089 675.976 569.368 670.804L568.811 671.635L568.255 672.466C575.591 677.38 581.228 684.629 585.143 694.277L586.07 693.901ZM568.811 671.635L569.372 670.807C561.723 665.634 552.535 663.071 541.858 663.071V664.071V665.071C552.204 665.071 560.986 667.55 568.251 672.463L568.811 671.635ZM541.858 664.071V663.071C531.251 663.071 522.066 665.635 514.349 670.804L514.905 671.635L515.462 672.466C522.801 667.55 531.585 665.071 541.858 665.071V664.071ZM514.905 671.635L514.349 670.804C506.63 675.974 500.727 683.567 496.616 693.519L497.54 693.901L498.464 694.282C502.45 684.632 508.124 677.381 515.462 672.466L514.905 671.635ZM497.54 693.901L496.614 693.525C492.574 703.478 490.574 715.617 490.574 729.909H491.574H492.574C492.574 715.792 494.551 703.925 498.467 694.277L497.54 693.901ZM491.574 729.909H490.574C490.574 744.201 492.574 756.34 496.614 766.294L497.54 765.918L498.467 765.542C494.551 755.893 492.574 744.026 492.574 729.909H491.574ZM497.54 765.918L496.616 766.299C500.727 776.251 506.63 783.844 514.349 789.014L514.905 788.183L515.462 787.352C508.124 782.438 502.45 775.186 498.464 765.536L497.54 765.918ZM514.905 788.183L514.349 789.014C522.066 794.183 531.251 796.747 541.858 796.747V795.747V794.747C531.585 794.747 522.801 792.269 515.462 787.352L514.905 788.183ZM541.858 795.747V796.747C552.535 796.747 561.723 794.184 569.372 789.012L568.811 788.183L568.251 787.355C560.986 792.268 552.204 794.747 541.858 794.747V795.747ZM568.811 788.183L569.368 789.014C577.089 783.843 582.957 776.248 586.997 766.294L586.07 765.918L585.143 765.542C581.228 775.189 575.591 782.439 568.255 787.352L568.811 788.183ZM586.07 765.918L586.994 766.299C591.106 756.344 593.142 744.203 593.142 729.909H592.142H591.142C591.142 744.025 589.13 755.889 585.146 765.536L586.07 765.918ZM862.526 620.818H863.526V619.818H862.526V620.818ZM862.526 839V840H863.526V839H862.526ZM817.782 839L816.958 839.568L817.256 840H817.782V839ZM730.956 713.077L731.78 712.509L731.481 712.077H730.956V713.077ZM729.571 713.077V712.077H728.571V713.077H729.571ZM729.571 839V840H730.571V839H729.571ZM676.837 839H675.837V840H676.837V839ZM676.837 620.818V619.818H675.837V620.818H676.837ZM722.221 620.818L723.046 620.254L722.748 619.818H722.221V620.818ZM808.087 746.528L807.261 747.092L807.559 747.528H808.087V746.528ZM809.898 746.528V747.528H810.898V746.528H809.898ZM809.898 620.818V619.818H808.898V620.818H809.898ZM862.526 620.818H861.526V839H862.526H863.526V620.818H862.526ZM862.526 839V838H817.782V839V840H862.526V839ZM817.782 839L818.605 838.432L731.78 712.509L730.956 713.077L730.133 713.644L816.958 839.568L817.782 839ZM730.956 713.077V712.077H729.571V713.077V714.077H730.956V713.077ZM729.571 713.077H728.571V839H729.571H730.571V713.077H729.571ZM729.571 839V838H676.837V839V840H729.571V839ZM676.837 839H677.837V620.818H676.837H675.837V839H676.837ZM676.837 620.818V621.818H722.221V620.818V619.818H676.837V620.818ZM722.221 620.818L721.395 621.382L807.261 747.092L808.087 746.528L808.913 745.964L723.046 620.254L722.221 620.818ZM808.087 746.528V747.528H809.898V746.528V745.528H808.087V746.528ZM809.898 746.528H810.898V620.818H809.898H808.898V746.528H809.898ZM809.898 620.818V621.818H862.526V620.818V619.818H809.898V620.818ZM1158.18 699.866V700.866H1159.29L1159.18 699.769L1158.18 699.866ZM1104.92 699.866L1103.93 699.995L1104.04 700.866H1104.92V699.866ZM1100.55 685.058L1099.66 685.505L1099.66 685.505L1100.55 685.058ZM1091.81 673.766L1092.47 673.008L1092.47 673.008L1091.81 673.766ZM1078.92 666.628L1078.59 667.572L1078.6 667.575L1078.61 667.578L1078.92 666.628ZM1035.24 671.848L1034.68 671.02L1034.68 671.022L1035.24 671.848ZM1017.67 694.327L1016.74 693.939L1016.74 693.945L1017.67 694.327ZM1017.77 766.344L1016.85 766.731L1016.85 766.739L1017.77 766.344ZM1035.35 788.396L1034.8 789.231L1034.81 789.237L1035.35 788.396ZM1078.18 793.51L1077.88 792.554L1077.88 792.556L1078.18 793.51ZM1090.86 787.011L1091.47 787.798L1091.47 787.797L1090.86 787.011ZM1099.91 776.464L1099.04 775.965L1099.04 775.97L1099.91 776.464ZM1104.92 762.295L1104.92 761.295L1104.08 761.29L1103.93 762.122L1104.92 762.295ZM1158.18 762.615L1159.18 762.71L1159.28 761.622L1158.19 761.615L1158.18 762.615ZM1149.77 791.166L1148.87 790.719L1148.87 790.724L1149.77 791.166ZM1130.7 816.841L1131.39 817.567L1131.39 817.564L1130.7 816.841ZM1101.08 835.165L1100.72 834.233L1100.72 834.234L1101.08 835.165ZM1008.18 828.986L1007.69 829.858L1007.7 829.86L1008.18 828.986ZM971.324 790.847L972.204 790.371L971.324 790.847ZM971.537 668.865L970.66 668.384L970.66 668.384L971.537 668.865ZM1097.89 623.375L1097.57 624.325L1097.58 624.327L1097.89 623.375ZM1127.5 639.355L1126.87 640.126L1126.87 640.13L1127.5 639.355ZM1158.18 699.866V698.866H1104.92V699.866V700.866H1158.18V699.866ZM1104.92 699.866L1105.91 699.738C1105.19 694.171 1103.7 689.126 1101.44 684.611L1100.55 685.058L1099.66 685.505C1101.8 689.798 1103.23 694.624 1103.93 699.995L1104.92 699.866ZM1100.55 685.058L1101.44 684.611C1099.19 680.093 1096.19 676.222 1092.47 673.008L1091.81 673.766L1091.16 674.523C1094.68 677.559 1097.51 681.217 1099.66 685.505L1100.55 685.058ZM1091.81 673.766L1092.47 673.008C1088.74 669.79 1084.32 667.349 1079.24 665.678L1078.92 666.628L1078.61 667.578C1083.47 669.174 1087.65 671.492 1091.16 674.523L1091.81 673.766ZM1078.92 666.628L1079.25 665.683C1074.23 663.937 1068.68 663.071 1062.62 663.071V664.071V665.071C1068.49 665.071 1073.81 665.91 1078.59 667.572L1078.92 666.628ZM1062.62 664.071V663.071C1051.87 663.071 1042.54 665.708 1034.68 671.02L1035.24 671.848L1035.8 672.676C1043.29 667.619 1052.21 665.071 1062.62 665.071V664.071ZM1035.24 671.848L1034.68 671.022C1026.9 676.331 1020.93 683.989 1016.74 693.939L1017.67 694.327L1018.59 694.714C1022.64 685.062 1028.39 677.734 1035.81 672.674L1035.24 671.848ZM1017.67 694.327L1016.74 693.945C1012.63 703.899 1010.59 715.897 1010.59 729.909H1011.59H1012.59C1012.59 716.081 1014.61 704.357 1018.59 694.708L1017.67 694.327ZM1011.59 729.909H1010.59C1010.59 744.485 1012.66 756.772 1016.85 766.731L1017.77 766.344L1018.69 765.956C1014.64 756.314 1012.59 744.31 1012.59 729.909H1011.59ZM1017.77 766.344L1016.85 766.739C1021.11 776.617 1027.08 784.134 1034.8 789.231L1035.35 788.396L1035.9 787.562C1028.56 782.715 1022.82 775.531 1018.69 765.948L1017.77 766.344ZM1035.35 788.396L1034.81 789.237C1042.59 794.256 1051.77 796.747 1062.3 796.747V795.747V794.747C1052.1 794.747 1043.31 792.338 1035.89 787.556L1035.35 788.396ZM1062.3 795.747V796.747C1068.21 796.747 1073.61 795.991 1078.48 794.464L1078.18 793.51L1077.88 792.556C1073.23 794.012 1068.04 794.747 1062.3 794.747V795.747ZM1078.18 793.51L1078.47 794.465C1083.41 792.941 1087.74 790.722 1091.47 787.798L1090.86 787.011L1090.24 786.225C1086.72 788.983 1082.61 791.096 1077.88 792.554L1078.18 793.51ZM1090.86 787.011L1091.47 787.797C1095.27 784.804 1098.37 781.19 1100.78 776.959L1099.91 776.464L1099.04 775.97C1096.76 779.978 1093.83 783.395 1090.24 786.226L1090.86 787.011ZM1099.91 776.464L1100.78 776.964C1103.26 772.663 1104.96 767.827 1105.9 762.468L1104.92 762.295L1103.93 762.122C1103.03 767.275 1101.39 771.886 1099.04 775.965L1099.91 776.464ZM1104.92 762.295L1104.91 763.295L1158.18 763.615L1158.18 762.615L1158.19 761.615L1104.92 761.295L1104.92 762.295ZM1158.18 762.615L1157.19 762.52C1156.28 772.047 1153.51 781.445 1148.87 790.719L1149.77 791.166L1150.66 791.613C1155.4 782.137 1158.24 772.501 1159.18 762.71L1158.18 762.615ZM1149.77 791.166L1148.87 790.724C1144.31 799.987 1138.03 808.452 1130.01 816.118L1130.7 816.841L1131.39 817.564C1139.57 809.747 1145.99 801.095 1150.67 791.608L1149.77 791.166ZM1130.7 816.841L1130.01 816.115C1122.02 823.686 1112.26 829.729 1100.72 834.233L1101.08 835.165L1101.45 836.096C1113.2 831.51 1123.19 825.336 1131.39 817.567L1130.7 816.841ZM1101.08 835.165L1100.72 834.234C1089.28 838.725 1076.12 840.983 1061.24 840.983V841.983V842.983C1076.32 842.983 1089.73 840.695 1101.45 836.096L1101.08 835.165ZM1061.24 841.983V840.983C1041.65 840.983 1024.13 836.685 1008.67 828.111L1008.18 828.986L1007.7 829.86C1023.49 838.616 1041.34 842.983 1061.24 842.983V841.983ZM1008.18 828.986L1008.67 828.114C993.296 819.477 981.14 806.906 972.204 790.371L971.324 790.847L970.444 791.322C979.548 808.168 991.965 821.023 1007.69 829.858L1008.18 828.986ZM971.324 790.847L972.204 790.371C963.281 773.86 958.794 753.72 958.794 729.909H957.794H956.794C956.794 753.967 961.327 774.452 970.444 791.322L971.324 790.847ZM957.794 729.909H958.794C958.794 706.029 963.351 685.856 972.414 669.346L971.537 668.865L970.66 668.384C961.399 685.255 956.794 705.778 956.794 729.909H957.794ZM971.537 668.865L972.414 669.346C981.491 652.81 993.753 640.274 1009.2 631.707L1008.72 630.832L1008.23 629.958C992.431 638.72 979.907 651.539 970.66 668.384L971.537 668.865ZM1008.72 630.832L1009.2 631.707C1024.67 623.131 1042 618.835 1061.24 618.835V617.835V616.835C1041.69 616.835 1024.02 621.204 1008.23 629.958L1008.72 630.832ZM1061.24 617.835V618.835C1074.36 618.835 1086.46 620.669 1097.57 624.325L1097.89 623.375L1098.2 622.425C1086.87 618.695 1074.54 616.835 1061.24 616.835V617.835ZM1097.89 623.375L1097.58 624.327C1108.69 627.913 1118.45 633.181 1126.87 640.126L1127.5 639.355L1128.14 638.584C1119.51 631.467 1109.53 626.082 1098.19 622.423L1097.89 623.375ZM1127.5 639.355L1126.87 640.13C1135.28 647.001 1142.12 655.452 1147.39 665.494L1148.28 665.03L1149.16 664.565C1143.78 654.295 1136.77 645.63 1128.14 638.581L1127.5 639.355ZM1148.28 665.03L1147.39 665.494C1152.65 675.521 1155.92 687.006 1157.19 699.964L1158.18 699.866L1159.18 699.769C1157.89 686.591 1154.56 674.851 1149.16 664.565L1148.28 665.03ZM1188.36 839H1187.36V840H1188.36V839ZM1188.36 620.818V619.818H1187.36V620.818H1188.36ZM1241.09 620.818H1242.09V619.818H1241.09V620.818ZM1241.09 708.389H1240.09V709.389H1241.09V708.389ZM1327.07 708.389V709.389H1328.07V708.389H1327.07ZM1327.07 620.818V619.818H1326.07V620.818H1327.07ZM1379.7 620.818H1380.7V619.818H1379.7V620.818ZM1379.7 839V840H1380.7V839H1379.7ZM1327.07 839H1326.07V840H1327.07V839ZM1327.07 751.322H1328.07V750.322H1327.07V751.322ZM1241.09 751.322V750.322H1240.09V751.322H1241.09ZM1241.09 839V840H1242.09V839H1241.09ZM1188.36 839H1189.36V620.818H1188.36H1187.36V839H1188.36ZM1188.36 620.818V621.818H1241.09V620.818V619.818H1188.36V620.818ZM1241.09 620.818H1240.09V708.389H1241.09H1242.09V620.818H1241.09ZM1241.09 708.389V709.389H1327.07V708.389V707.389H1241.09V708.389ZM1327.07 708.389H1328.07V620.818H1327.07H1326.07V708.389H1327.07ZM1327.07 620.818V621.818H1379.7V620.818V619.818H1327.07V620.818ZM1379.7 620.818H1378.7V839H1379.7H1380.7V620.818H1379.7ZM1379.7 839V838H1327.07V839V840H1379.7V839ZM1327.07 839H1328.07V751.322H1327.07H1326.07V839H1327.07ZM1327.07 751.322V750.322H1241.09V751.322V752.322H1327.07V751.322ZM1241.09 751.322H1240.09V839H1241.09H1242.09V751.322H1241.09ZM1241.09 839V838H1188.36V839V840H1241.09V839ZM1459.97 839V840H1460.7L1460.92 839.299L1459.97 839ZM1403.29 839L1402.35 838.68L1401.9 840H1403.29V839ZM1476.91 620.818V619.818H1476.19L1475.96 620.498L1476.91 620.818ZM1547.11 620.818L1548.06 620.498L1547.83 619.818H1547.11V620.818ZM1620.73 839V840H1622.12L1621.68 838.68L1620.73 839ZM1564.05 839L1563.1 839.3L1563.32 840H1564.05V839ZM1512.81 675.79L1513.76 675.49L1513.54 674.79H1512.81V675.79ZM1511.11 675.79V674.79H1510.37L1510.15 675.491L1511.11 675.79ZM1452.41 753.134V752.134H1451.41V753.134H1452.41ZM1570.87 753.134H1571.87V752.134H1570.87V753.134ZM1570.87 793.19V794.19H1571.87V793.19H1570.87ZM1452.41 793.19H1451.41V794.19H1452.41V793.19ZM1459.97 839V838H1403.29V839V840H1459.97V839ZM1403.29 839L1404.24 839.32L1477.86 621.138L1476.91 620.818L1475.96 620.498L1402.35 838.68L1403.29 839ZM1476.91 620.818V621.818H1547.11V620.818V619.818H1476.91V620.818ZM1547.11 620.818L1546.17 621.138L1619.78 839.32L1620.73 839L1621.68 838.68L1548.06 620.498L1547.11 620.818ZM1620.73 839V838H1564.05V839V840H1620.73V839ZM1564.05 839L1565.01 838.7L1513.76 675.49L1512.81 675.79L1511.86 676.089L1563.1 839.3L1564.05 839ZM1512.81 675.79V674.79H1511.11V675.79V676.79H1512.81V675.79ZM1511.11 675.79L1510.15 675.491L1459.01 838.701L1459.97 839L1460.92 839.299L1512.06 676.089L1511.11 675.79ZM1452.41 753.134V754.134H1570.87V753.134V752.134H1452.41V753.134ZM1570.87 753.134H1569.87V793.19H1570.87H1571.87V753.134H1570.87ZM1570.87 793.19V792.19H1452.41V793.19V794.19H1570.87V793.19ZM1452.41 793.19H1453.41V753.134H1452.41H1451.41V793.19H1452.41ZM1696.95 620.818H1697.95V619.818H1696.95V620.818ZM1696.95 839V840H1697.95V839H1696.95ZM1644.22 839H1643.22V840H1644.22V839ZM1644.22 620.818V619.818H1643.22V620.818H1644.22ZM1696.95 620.818H1695.95V839H1696.95H1697.95V620.818H1696.95ZM1696.95 839V838H1644.22V839V840H1696.95V839ZM1644.22 839H1645.22V620.818H1644.22H1643.22V839H1644.22ZM1644.22 620.818V621.818H1696.95V620.818V619.818H1644.22V620.818ZM1915.75 620.818H1916.75V619.818H1915.75V620.818ZM1915.75 839V840H1916.75V839H1915.75ZM1871 839L1870.18 839.568L1870.48 840H1871V839ZM1784.18 713.077L1785 712.509L1784.7 712.077H1784.18V713.077ZM1782.79 713.077V712.077H1781.79V713.077H1782.79ZM1782.79 839V840H1783.79V839H1782.79ZM1730.06 839H1729.06V840H1730.06V839ZM1730.06 620.818V619.818H1729.06V620.818H1730.06ZM1775.44 620.818L1776.27 620.254L1775.97 619.818H1775.44V620.818ZM1861.31 746.528L1860.48 747.092L1860.78 747.528H1861.31V746.528ZM1863.12 746.528V747.528H1864.12V746.528H1863.12ZM1863.12 620.818V619.818H1862.12V620.818H1863.12ZM1915.75 620.818H1914.75V839H1915.75H1916.75V620.818H1915.75ZM1915.75 839V838H1871V839V840H1915.75V839ZM1871 839L1871.83 838.432L1785 712.509L1784.18 713.077L1783.36 713.644L1870.18 839.568L1871 839ZM1784.18 713.077V712.077H1782.79V713.077V714.077H1784.18V713.077ZM1782.79 713.077H1781.79V839H1782.79H1783.79V713.077H1782.79ZM1782.79 839V838H1730.06V839V840H1782.79V839ZM1730.06 839H1731.06V620.818H1730.06H1729.06V839H1730.06ZM1730.06 620.818V621.818H1775.44V620.818V619.818H1730.06V620.818ZM1775.44 620.818L1774.62 621.382L1860.48 747.092L1861.31 746.528L1862.14 745.964L1776.27 620.254L1775.44 620.818ZM1861.31 746.528V747.528H1863.12V746.528V745.528H1861.31V746.528ZM1863.12 746.528H1864.12V620.818H1863.12H1862.12V746.528H1863.12ZM1863.12 620.818V621.818H1915.75V620.818V619.818H1863.12V620.818Z" fill="#E15935" mask="url(#path-1-outside-1_126_11)"/>
<path d="M659.205 322.953H600.611C599.83 316.937 598.229 311.508 595.807 306.664C593.385 301.82 590.182 297.68 586.197 294.242C582.213 290.805 577.486 288.187 572.018 286.391C566.627 284.516 560.65 283.578 554.088 283.578C542.447 283.578 532.408 286.43 523.971 292.133C515.611 297.836 509.166 306.078 504.635 316.859C500.182 327.641 497.955 340.687 497.955 356C497.955 371.937 500.221 385.297 504.752 396.078C509.361 406.781 515.807 414.867 524.088 420.336C532.447 425.727 542.33 428.422 553.736 428.422C560.143 428.422 565.963 427.602 571.197 425.961C576.51 424.32 581.158 421.938 585.143 418.813C589.205 415.609 592.525 411.742 595.104 407.211C597.76 402.602 599.596 397.406 600.611 391.625L659.205 391.977C658.189 402.602 655.104 413.07 649.947 423.383C644.869 433.695 637.877 443.109 628.971 451.625C620.064 460.062 609.205 466.781 596.393 471.781C583.658 476.781 569.049 479.281 552.564 479.281C530.846 479.281 511.393 474.516 494.205 464.984C477.096 455.375 463.58 441.391 453.658 423.031C443.736 404.672 438.775 382.328 438.775 356C438.775 329.594 443.814 307.211 453.893 288.852C463.971 270.492 477.604 256.547 494.791 247.016C511.979 237.484 531.236 232.719 552.564 232.719C567.096 232.719 580.533 234.75 592.877 238.812C605.221 242.797 616.08 248.656 625.455 256.391C634.83 264.047 642.447 273.461 648.307 284.633C654.166 295.805 657.799 308.578 659.205 322.953ZM744.789 476H682.446L763.422 236H840.649L921.625 476H859.282L802.914 296.469H801.039L744.789 476ZM736.469 381.547H866.782V425.609H736.469V381.547ZM954.065 236H1025.9L1086.84 384.594H1089.65L1150.59 236H1222.42V476H1165.94V328.578H1163.95L1106.29 474.477H1070.2L1012.54 327.758H1010.55V476H954.065V236ZM1265.21 476V236H1364.35C1382.32 236 1397.82 239.516 1410.87 246.547C1424 253.5 1434.11 263.227 1441.22 275.727C1448.33 288.148 1451.89 302.602 1451.89 319.086C1451.89 335.648 1448.25 350.141 1440.99 362.562C1433.8 374.906 1423.53 384.477 1410.17 391.273C1396.81 398.07 1380.95 401.469 1362.59 401.469H1301.42V355.766H1351.81C1360.56 355.766 1367.86 354.242 1373.72 351.195C1379.66 348.148 1384.15 343.891 1387.2 338.422C1390.25 332.875 1391.77 326.43 1391.77 319.086C1391.77 311.664 1390.25 305.258 1387.2 299.867C1384.15 294.398 1379.66 290.18 1373.72 287.211C1367.78 284.242 1360.48 282.758 1351.81 282.758H1323.21V476H1265.21ZM1632.28 236H1690.17V390.805C1690.17 408.695 1685.91 424.281 1677.39 437.562C1668.88 450.766 1657 461 1641.77 468.266C1626.53 475.453 1608.84 479.047 1588.68 479.047C1568.29 479.047 1550.48 475.453 1535.24 468.266C1520.01 461 1508.17 450.766 1499.74 437.562C1491.3 424.281 1487.08 408.695 1487.08 390.805V236H1545.09V385.766C1545.09 394.047 1546.88 401.43 1550.48 407.914C1554.15 414.398 1559.27 419.477 1565.83 423.148C1572.39 426.82 1580.01 428.656 1588.68 428.656C1597.35 428.656 1604.93 426.82 1611.42 423.148C1617.98 419.477 1623.1 414.398 1626.77 407.914C1630.44 401.43 1632.28 394.047 1632.28 385.766V236ZM1862.85 307.953C1862.07 299.359 1858.59 292.68 1852.42 287.914C1846.33 283.07 1837.62 280.648 1826.29 280.648C1818.79 280.648 1812.54 281.625 1807.54 283.578C1802.54 285.531 1798.79 288.227 1796.29 291.664C1793.79 295.023 1792.5 298.891 1792.42 303.266C1792.26 306.859 1792.97 310.023 1794.53 312.758C1796.17 315.492 1798.51 317.914 1801.56 320.023C1804.69 322.055 1808.44 323.852 1812.81 325.414C1817.19 326.977 1822.11 328.344 1827.58 329.516L1848.2 334.203C1860.08 336.781 1870.54 340.219 1879.61 344.516C1888.75 348.812 1896.4 353.93 1902.58 359.867C1908.83 365.805 1913.55 372.641 1916.76 380.375C1919.96 388.109 1921.6 396.781 1921.68 406.391C1921.6 421.547 1917.77 434.555 1910.19 445.414C1902.62 456.273 1891.72 464.594 1877.5 470.375C1863.36 476.156 1846.29 479.047 1826.29 479.047C1806.21 479.047 1788.71 476.039 1773.79 470.023C1758.87 464.008 1747.26 454.867 1738.98 442.602C1730.7 430.336 1726.44 414.828 1726.21 396.078H1781.76C1782.22 403.812 1784.29 410.258 1787.97 415.414C1791.64 420.57 1796.68 424.477 1803.08 427.133C1809.57 429.789 1817.07 431.117 1825.58 431.117C1833.4 431.117 1840.04 430.062 1845.51 427.953C1851.05 425.844 1855.31 422.914 1858.28 419.164C1861.25 415.414 1862.77 411.117 1862.85 406.273C1862.77 401.742 1861.37 397.875 1858.63 394.672C1855.9 391.391 1851.68 388.578 1845.97 386.234C1840.35 383.812 1833.16 381.586 1824.41 379.555L1799.33 373.695C1778.55 368.93 1762.19 361.234 1750.23 350.609C1738.28 339.906 1732.34 325.453 1732.42 307.25C1732.34 292.406 1736.33 279.398 1744.37 268.227C1752.42 257.055 1763.55 248.344 1777.77 242.094C1791.99 235.844 1808.2 232.719 1826.4 232.719C1845 232.719 1861.13 235.883 1874.8 242.211C1888.55 248.461 1899.22 257.25 1906.79 268.578C1914.37 279.906 1918.24 293.031 1918.4 307.953H1862.85Z" fill="#D9D9D9"/>
</svg>
