<svg width="1487" height="612" viewBox="0 0 1487 612" fill="none" xmlns="http://www.w3.org/2000/svg">
<mask id="path-1-outside-1_126_12" maskUnits="userSpaceOnUse" x="0" y="0" width="1487" height="612" fill="black">
<rect fill="white" width="1487" height="612"/>
<path d="M223.205 91.9531H164.611C163.83 85.9375 162.229 80.5078 159.807 75.664C157.385 70.8203 154.182 66.6797 150.197 63.2422C146.213 59.8047 141.486 57.1875 136.018 55.3906C130.627 53.5156 124.65 52.5781 118.088 52.5781C106.447 52.5781 96.4082 55.4297 87.9707 61.1328C79.6113 66.8359 73.166 75.0781 68.6348 85.8594C64.1816 96.6406 61.9551 109.687 61.9551 125C61.9551 140.937 64.2207 154.297 68.752 165.078C73.3613 175.781 79.8066 183.867 88.0879 189.336C96.4473 194.727 106.33 197.422 117.736 197.422C124.143 197.422 129.963 196.602 135.197 194.961C140.51 193.32 145.158 190.938 149.143 187.813C153.205 184.609 156.525 180.742 159.104 176.211C161.76 171.602 163.596 166.406 164.611 160.625L223.205 160.977C222.189 171.602 219.104 182.07 213.947 192.383C208.869 202.695 201.877 212.109 192.971 220.625C184.064 229.062 173.205 235.781 160.393 240.781C147.658 245.781 133.049 248.281 116.564 248.281C94.8457 248.281 75.3926 243.516 58.2051 233.984C41.0957 224.375 27.5801 210.391 17.6582 192.031C7.73633 173.672 2.77539 151.328 2.77539 125C2.77539 98.5937 7.81445 76.2109 17.8926 57.8516C27.9707 39.4922 41.6035 25.5469 58.791 16.0156C75.9785 6.48437 95.2363 1.71874 116.564 1.71874C131.096 1.71874 144.533 3.74999 156.877 7.8125C169.221 11.7969 180.08 17.6562 189.455 25.3906C198.83 33.0469 206.447 42.4609 212.307 53.6328C218.166 64.8047 221.799 77.5781 223.205 91.9531ZM308.789 245H246.446L327.422 4.99999H404.649L485.625 245H423.282L366.914 65.4687H365.039L308.789 245ZM300.469 150.547H430.782V194.609H300.469V150.547ZM518.065 4.99999H589.901L650.839 153.594H653.651L714.589 4.99999H786.425V245H729.94V97.5781H727.948L670.292 243.477H634.198L576.542 96.7578H574.55V245H518.065V4.99999ZM829.206 245V4.99999H928.347C946.316 4.99999 961.823 8.51562 974.87 15.5469C987.995 22.5 998.113 32.2265 1005.22 44.7265C1012.33 57.1484 1015.89 71.6016 1015.89 88.0859C1015.89 104.648 1012.25 119.141 1004.99 131.562C997.8 143.906 987.527 153.477 974.167 160.273C960.808 167.07 944.948 170.469 926.589 170.469H865.417V124.766H915.808C924.558 124.766 931.863 123.242 937.722 120.195C943.659 117.148 948.152 112.891 951.198 107.422C954.245 101.875 955.769 95.4297 955.769 88.0859C955.769 80.664 954.245 74.2578 951.198 68.8672C948.152 63.3984 943.659 59.1797 937.722 56.2109C931.784 53.2422 924.48 51.7578 915.808 51.7578H887.214V245H829.206ZM1196.28 4.99999H1254.17V159.805C1254.17 177.695 1249.91 193.281 1241.39 206.562C1232.88 219.766 1221 230 1205.77 237.266C1190.53 244.453 1172.84 248.047 1152.68 248.047C1132.29 248.047 1114.48 244.453 1099.24 237.266C1084.01 230 1072.17 219.766 1063.74 206.562C1055.3 193.281 1051.08 177.695 1051.08 159.805V4.99999H1109.09V154.766C1109.09 163.047 1110.88 170.43 1114.48 176.914C1118.15 183.398 1123.27 188.477 1129.83 192.148C1136.39 195.82 1144.01 197.656 1152.68 197.656C1161.35 197.656 1168.93 195.82 1175.42 192.148C1181.98 188.477 1187.1 183.398 1190.77 176.914C1194.44 170.43 1196.28 163.047 1196.28 154.766V4.99999ZM1426.85 76.9531C1426.07 68.3594 1422.59 61.6797 1416.42 56.9141C1410.33 52.0703 1401.62 49.6484 1390.29 49.6484C1382.79 49.6484 1376.54 50.625 1371.54 52.5781C1366.54 54.5312 1362.79 57.2266 1360.29 60.6641C1357.79 64.0234 1356.5 67.8906 1356.42 72.2656C1356.26 75.8594 1356.97 79.0234 1358.53 81.7578C1360.17 84.4922 1362.51 86.9141 1365.56 89.0234C1368.69 91.0547 1372.44 92.8516 1376.81 94.4141C1381.19 95.9766 1386.11 97.3437 1391.58 98.5156L1412.2 103.203C1424.08 105.781 1434.54 109.219 1443.61 113.516C1452.75 117.812 1460.4 122.93 1466.58 128.867C1472.83 134.805 1477.55 141.641 1480.76 149.375C1483.96 157.109 1485.6 165.781 1485.68 175.391C1485.6 190.547 1481.77 203.555 1474.19 214.414C1466.62 225.273 1455.72 233.594 1441.5 239.375C1427.36 245.156 1410.29 248.047 1390.29 248.047C1370.21 248.047 1352.71 245.039 1337.79 239.023C1322.87 233.008 1311.26 223.867 1302.98 211.602C1294.7 199.336 1290.44 183.828 1290.21 165.078H1345.76C1346.22 172.812 1348.29 179.258 1351.97 184.414C1355.64 189.57 1360.68 193.477 1367.08 196.133C1373.57 198.789 1381.07 200.117 1389.58 200.117C1397.4 200.117 1404.04 199.062 1409.51 196.953C1415.05 194.844 1419.31 191.914 1422.28 188.164C1425.25 184.414 1426.77 180.117 1426.85 175.273C1426.77 170.742 1425.37 166.875 1422.63 163.672C1419.9 160.391 1415.68 157.578 1409.97 155.234C1404.35 152.812 1397.16 150.586 1388.41 148.555L1363.33 142.695C1342.55 137.93 1326.19 130.234 1314.23 119.609C1302.28 108.906 1296.34 94.4531 1296.42 76.25C1296.34 61.4062 1300.33 48.3984 1308.37 37.2266C1316.42 26.0547 1327.55 17.3437 1341.77 11.0938C1355.99 4.84374 1372.2 1.71874 1390.4 1.71874C1409 1.71874 1425.13 4.8828 1438.8 11.2109C1452.55 17.4609 1463.22 26.25 1470.79 37.5781C1478.37 48.9062 1482.24 62.0312 1482.4 76.9531H1426.85ZM210.049 498.909C210.049 522.915 205.432 543.263 196.199 559.953C186.966 576.643 174.466 589.321 158.699 597.986C143.003 606.651 125.39 610.983 105.858 610.983C86.256 610.983 68.6069 606.615 52.9109 597.879C37.2148 589.143 24.7504 576.466 15.5174 559.847C6.35547 543.156 1.7745 522.844 1.7745 498.909C1.7745 474.903 6.35547 454.555 15.5174 437.865C24.7504 421.175 37.2148 408.497 52.9109 399.832C68.6069 391.168 86.256 386.835 105.858 386.835C125.39 386.835 143.003 391.168 158.699 399.832C174.466 408.497 186.966 421.175 196.199 437.865C205.432 454.555 210.049 474.903 210.049 498.909ZM156.142 498.909C156.142 484.705 154.118 472.702 150.07 462.901C146.093 453.099 140.34 445.678 132.811 440.635C125.354 435.592 116.37 433.071 105.858 433.071C95.418 433.071 86.4336 435.592 78.9052 440.635C71.3768 445.678 65.5884 453.099 61.5401 462.901C57.5629 472.702 55.5742 484.705 55.5742 498.909C55.5742 513.114 57.5629 525.116 61.5401 534.918C65.5884 544.719 71.3768 552.141 78.9052 557.183C86.4336 562.226 95.418 564.747 105.858 564.747C116.37 564.747 125.354 562.226 132.811 557.183C140.34 552.141 146.093 544.719 150.07 534.918C154.118 525.116 156.142 513.114 156.142 498.909ZM426.526 389.818V608H381.782L294.956 482.077H293.571V608H240.837V389.818H286.221L372.087 515.528H373.898V389.818H426.526ZM722.185 468.866H668.918C668.207 463.398 666.751 458.462 664.55 454.058C662.348 449.655 659.436 445.891 655.814 442.766C652.192 439.641 647.895 437.261 642.923 435.628C638.023 433.923 632.589 433.071 626.624 433.071C616.041 433.071 606.915 435.663 599.244 440.848C591.645 446.033 585.786 453.526 581.666 463.327C577.618 473.128 575.594 484.989 575.594 498.909C575.594 513.398 577.653 525.543 581.773 535.344C585.963 545.074 591.822 552.425 599.351 557.396C606.95 562.297 615.935 564.747 626.304 564.747C632.128 564.747 637.419 564.001 642.178 562.51C647.007 561.018 651.233 558.852 654.855 556.011C658.548 553.099 661.567 549.584 663.911 545.464C666.325 541.274 667.994 536.551 668.918 531.295L722.185 531.615C721.261 541.274 718.456 550.791 713.768 560.166C709.152 569.541 702.795 578.099 694.699 585.841C686.602 593.511 676.73 599.619 665.082 604.165C653.506 608.71 640.224 610.983 625.239 610.983C605.494 610.983 587.81 606.651 572.185 597.986C556.631 589.25 544.344 576.537 535.324 559.847C526.304 543.156 521.794 522.844 521.794 498.909C521.794 474.903 526.375 454.555 535.537 437.865C544.699 421.175 557.092 408.497 572.717 399.832C588.342 391.168 605.849 386.835 625.239 386.835C638.449 386.835 650.665 388.682 661.886 392.375C673.108 395.997 682.98 401.324 691.503 408.355C700.026 415.315 706.95 423.874 712.277 434.03C717.604 444.186 720.906 455.798 722.185 468.866ZM752.36 608V389.818H805.095V477.389H891.068V389.818H943.696V608H891.068V520.322H805.095V608H752.36ZM1023.97 608H967.293L1040.91 389.818H1111.11L1184.73 608H1128.05L1076.81 444.79H1075.11L1023.97 608ZM1016.41 522.134H1134.87V562.19H1016.41V522.134ZM1260.95 389.818V608H1208.22V389.818H1260.95ZM1479.75 389.818V608H1435L1348.18 482.077H1346.79V608H1294.06V389.818H1339.44L1425.31 515.528H1427.12V389.818H1479.75Z"/>
</mask>
<path d="M223.205 91.9531V92.9531H224.308L224.2 91.8558L223.205 91.9531ZM164.611 91.9531L163.62 92.0819L163.733 92.9531H164.611V91.9531ZM159.807 75.664L158.912 76.1113L158.912 76.1113L159.807 75.664ZM150.197 63.2422L150.851 62.485L150.851 62.485L150.197 63.2422ZM136.018 55.3906L135.689 56.3351L135.697 56.338L135.705 56.3407L136.018 55.3906ZM87.9707 61.1328L87.4107 60.3043L87.4071 60.3067L87.9707 61.1328ZM68.6348 85.8594L67.7129 85.4719L67.7105 85.4776L68.6348 85.8594ZM68.752 165.078L67.83 165.466L67.8335 165.474L68.752 165.078ZM88.0879 189.336L87.5368 190.17L87.5459 190.176L88.0879 189.336ZM135.197 194.961L134.902 194.005L134.898 194.007L135.197 194.961ZM149.143 187.813L149.76 188.599L149.762 188.598L149.143 187.813ZM159.104 176.211L158.237 175.712L158.234 175.716L159.104 176.211ZM164.611 160.625L164.617 159.625L163.773 159.62L163.626 160.452L164.611 160.625ZM223.205 160.977L224.201 161.072L224.305 159.983L223.211 159.977L223.205 160.977ZM213.947 192.383L213.053 191.936L213.05 191.941L213.947 192.383ZM192.971 220.625L193.658 221.351L193.662 221.348L192.971 220.625ZM160.393 240.781L160.029 239.85L160.027 239.85L160.393 240.781ZM58.2051 233.984L57.7154 234.856L57.7201 234.859L58.2051 233.984ZM17.6582 192.031L18.538 191.556L17.6582 192.031ZM17.8926 57.8516L17.016 57.3704L17.016 57.3704L17.8926 57.8516ZM156.877 7.8125L156.564 8.76239L156.57 8.76415L156.877 7.8125ZM189.455 25.3906L188.819 26.162L188.823 26.1651L189.455 25.3906ZM223.205 91.9531V90.9531H164.611V91.9531V92.9531H223.205V91.9531ZM164.611 91.9531L165.603 91.8243C164.809 85.7111 163.179 80.1718 160.701 75.2168L159.807 75.664L158.912 76.1113C161.278 80.8438 162.851 86.1639 163.62 92.0819L164.611 91.9531ZM159.807 75.664L160.701 75.2168C158.222 70.2584 154.938 66.0114 150.851 62.485L150.197 63.2422L149.544 63.9993C153.425 67.348 156.548 71.3822 158.912 76.1113L159.807 75.664ZM150.197 63.2422L150.851 62.485C146.757 58.9536 141.912 56.2747 136.33 54.4406L136.018 55.3906L135.705 56.3407C141.061 58.1002 145.669 60.6558 149.544 63.9993L150.197 63.2422ZM136.018 55.3906L136.346 54.4461C130.835 52.5293 124.746 51.5781 118.088 51.5781V52.5781V53.5781C124.555 53.5781 130.419 54.5019 135.689 56.3351L136.018 55.3906ZM118.088 52.5781V51.5781C106.277 51.5781 96.0364 54.474 87.4107 60.3043L87.9707 61.1328L88.5307 61.9613C96.78 56.3854 106.617 53.5781 118.088 53.5781V52.5781ZM87.9707 61.1328L87.4071 60.3067C78.8649 66.1346 72.3069 74.5413 67.7129 85.4719L68.6348 85.8594L69.5567 86.2468C74.0251 75.615 80.3577 67.5373 88.5343 61.9589L87.9707 61.1328ZM68.6348 85.8594L67.7105 85.4776C63.1944 96.4113 60.9551 109.595 60.9551 125H61.9551H62.9551C62.9551 109.78 65.1689 96.8699 69.559 86.2411L68.6348 85.8594ZM61.9551 125H60.9551C60.9551 141.025 63.2322 154.526 67.8301 165.466L68.752 165.078L69.6738 164.691C65.2092 154.068 62.9551 140.85 62.9551 125H61.9551ZM68.752 165.078L67.8335 165.474C72.5063 176.324 79.0663 184.577 87.5368 190.17L88.0879 189.336L88.639 188.501C80.547 183.158 74.2164 175.239 69.6704 164.683L68.752 165.078ZM88.0879 189.336L87.5459 190.176C96.0896 195.686 106.167 198.422 117.736 198.422V197.422V196.422C106.493 196.422 96.805 193.767 88.6298 188.496L88.0879 189.336ZM117.736 197.422V198.422C124.227 198.422 130.151 197.591 135.496 195.915L135.197 194.961L134.898 194.007C129.775 195.612 124.058 196.422 117.736 196.422V197.422ZM135.197 194.961L135.492 195.916C140.91 194.243 145.67 191.807 149.76 188.599L149.143 187.813L148.525 187.026C144.646 190.068 140.109 192.397 134.902 194.005L135.197 194.961ZM149.143 187.813L149.762 188.598C153.926 185.314 157.331 181.348 159.973 176.705L159.104 176.211L158.234 175.716C155.72 180.136 152.484 183.905 148.523 187.027L149.143 187.813ZM159.104 176.211L159.97 176.71C162.69 171.99 164.563 166.682 165.596 160.798L164.611 160.625L163.626 160.452C162.629 166.13 160.829 171.213 158.237 175.712L159.104 176.211ZM164.611 160.625L164.605 161.625L223.199 161.977L223.205 160.977L223.211 159.977L164.617 159.625L164.611 160.625ZM223.205 160.977L222.21 160.881C221.207 171.374 218.158 181.724 213.053 191.936L213.947 192.383L214.842 192.83C220.049 182.416 223.172 171.829 224.201 161.072L223.205 160.977ZM213.947 192.383L213.05 191.941C208.027 202.141 201.107 211.462 192.28 219.902L192.971 220.625L193.662 221.348C202.647 212.757 209.711 203.249 214.844 192.825L213.947 192.383ZM192.971 220.625L192.283 219.899C183.481 228.238 172.736 234.891 160.029 239.85L160.393 240.781L160.756 241.713C173.674 236.672 184.648 229.887 193.658 221.351L192.971 220.625ZM160.393 240.781L160.027 239.85C147.43 244.796 132.949 247.281 116.564 247.281V248.281V249.281C133.149 249.281 147.886 246.766 160.758 241.712L160.393 240.781ZM116.564 248.281V247.281C94.9972 247.281 75.714 242.55 58.69 233.11L58.2051 233.984L57.7201 234.859C75.0712 244.481 94.6943 249.281 116.564 249.281V248.281ZM58.2051 233.984L58.6948 233.112C41.7609 223.602 28.3759 209.76 18.538 191.556L17.6582 192.031L16.7785 192.507C26.7843 211.021 40.4305 225.148 57.7154 234.856L58.2051 233.984ZM17.6582 192.031L18.538 191.556C8.71302 173.376 3.77539 151.205 3.77539 125H2.77539H1.77539C1.77539 151.452 6.75964 173.968 16.7785 192.507L17.6582 192.031ZM2.77539 125H3.77539C3.77539 98.7189 8.79047 76.511 18.7692 58.3328L17.8926 57.8516L17.016 57.3704C6.83844 75.9108 1.77539 98.4686 1.77539 125H2.77539ZM17.8926 57.8516L18.7692 58.3328C28.7627 40.1275 42.2645 26.3238 59.276 16.8902L58.791 16.0156L58.306 15.1411C40.9425 24.7699 27.1787 38.8569 17.016 57.3704L17.8926 57.8516ZM58.791 16.0156L59.276 16.8902C76.3026 7.44811 95.3912 2.71874 116.564 2.71874V1.71874V0.718741C95.0815 0.718741 75.6544 5.52063 58.306 15.1411L58.791 16.0156ZM116.564 1.71874V2.71874C131.002 2.71874 144.333 4.73675 156.564 8.76238L156.877 7.8125L157.19 6.86262C144.734 2.76324 131.189 0.718741 116.564 0.718741V1.71874ZM156.877 7.8125L156.57 8.76415C168.802 12.7124 179.547 18.5132 188.819 26.162L189.455 25.3906L190.091 24.6192C180.613 16.7992 169.64 10.8814 157.184 6.86085L156.877 7.8125ZM189.455 25.3906L188.823 26.1651C198.089 33.7326 205.622 43.0396 211.421 54.0973L212.307 53.6328L213.192 53.1683C207.273 41.8823 199.571 32.3612 190.088 24.6161L189.455 25.3906ZM212.307 53.6328L211.421 54.0973C217.213 65.1397 220.814 77.7853 222.21 92.0505L223.205 91.9531L224.2 91.8558C222.783 77.3709 219.12 64.4697 213.192 53.1683L212.307 53.6328ZM308.789 245V246H309.524L309.744 245.299L308.789 245ZM246.446 245L245.498 244.68L245.053 246H246.446V245ZM327.422 4.99999V3.99999H326.704L326.475 4.6803L327.422 4.99999ZM404.649 4.99999L405.596 4.6803L405.367 3.99999H404.649V4.99999ZM485.625 245V246H487.018L486.573 244.68L485.625 245ZM423.282 245L422.328 245.3L422.547 246H423.282V245ZM366.914 65.4687L367.869 65.1692L367.649 64.4687H366.914V65.4687ZM365.039 65.4687V64.4687H364.305L364.085 65.1698L365.039 65.4687ZM300.469 150.547V149.547H299.469V150.547H300.469ZM430.782 150.547H431.782V149.547H430.782V150.547ZM430.782 194.609V195.609H431.782V194.609H430.782ZM300.469 194.609H299.469V195.609H300.469V194.609ZM308.789 245V244H246.446V245V246H308.789V245ZM246.446 245L247.393 245.32L328.37 5.31969L327.422 4.99999L326.475 4.6803L245.498 244.68L246.446 245ZM327.422 4.99999V5.99999H404.649V4.99999V3.99999H327.422V4.99999ZM404.649 4.99999L403.701 5.31969L484.678 245.32L485.625 245L486.573 244.68L405.596 4.6803L404.649 4.99999ZM485.625 245V244H423.282V245V246H485.625V245ZM423.282 245L424.236 244.7L367.869 65.1692L366.914 65.4687L365.96 65.7683L422.328 245.3L423.282 245ZM366.914 65.4687V64.4687H365.039V65.4687V66.4687H366.914V65.4687ZM365.039 65.4687L364.085 65.1698L307.835 244.701L308.789 245L309.744 245.299L365.994 65.7677L365.039 65.4687ZM300.469 150.547V151.547H430.782V150.547V149.547H300.469V150.547ZM430.782 150.547H429.782V194.609H430.782H431.782V150.547H430.782ZM430.782 194.609V193.609H300.469V194.609V195.609H430.782V194.609ZM300.469 194.609H301.469V150.547H300.469H299.469V194.609H300.469ZM518.065 4.99999V3.99999H517.065V4.99999H518.065ZM589.901 4.99999L590.826 4.62056L590.572 3.99999H589.901V4.99999ZM650.839 153.594L649.913 153.973L650.168 154.594H650.839V153.594ZM653.651 153.594V154.594H654.322L654.576 153.973L653.651 153.594ZM714.589 4.99999V3.99999H713.918L713.663 4.62056L714.589 4.99999ZM786.425 4.99999H787.425V3.99999H786.425V4.99999ZM786.425 245V246H787.425V245H786.425ZM729.94 245H728.94V246H729.94V245ZM729.94 97.5781H730.94V96.5781H729.94V97.5781ZM727.948 97.5781V96.5781H727.268L727.018 97.2106L727.948 97.5781ZM670.292 243.477V244.477H670.972L671.222 243.844L670.292 243.477ZM634.198 243.477L633.267 243.842L633.517 244.477H634.198V243.477ZM576.542 96.7578L577.473 96.3921L577.223 95.7578H576.542V96.7578ZM574.55 96.7578V95.7578H573.55V96.7578H574.55ZM574.55 245V246H575.55V245H574.55ZM518.065 245H517.065V246H518.065V245ZM518.065 4.99999V5.99999H589.901V4.99999V3.99999H518.065V4.99999ZM589.901 4.99999L588.976 5.37942L649.913 153.973L650.839 153.594L651.764 153.214L590.826 4.62056L589.901 4.99999ZM650.839 153.594V154.594H653.651V153.594V152.594H650.839V153.594ZM653.651 153.594L654.576 153.973L715.514 5.37942L714.589 4.99999L713.663 4.62056L652.726 153.214L653.651 153.594ZM714.589 4.99999V5.99999H786.425V4.99999V3.99999H714.589V4.99999ZM786.425 4.99999H785.425V245H786.425H787.425V4.99999H786.425ZM786.425 245V244H729.94V245V246H786.425V245ZM729.94 245H730.94V97.5781H729.94H728.94V245H729.94ZM729.94 97.5781V96.5781H727.948V97.5781V98.5781H729.94V97.5781ZM727.948 97.5781L727.018 97.2106L669.362 243.109L670.292 243.477L671.222 243.844L728.878 97.9456L727.948 97.5781ZM670.292 243.477V242.477H634.198V243.477V244.477H670.292V243.477ZM634.198 243.477L635.129 243.111L577.473 96.3921L576.542 96.7578L575.611 97.1236L633.267 243.842L634.198 243.477ZM576.542 96.7578V95.7578H574.55V96.7578V97.7578H576.542V96.7578ZM574.55 96.7578H573.55V245H574.55H575.55V96.7578H574.55ZM574.55 245V244H518.065V245V246H574.55V245ZM518.065 245H519.065V4.99999H518.065H517.065V245H518.065ZM829.206 245H828.206V246H829.206V245ZM829.206 4.99999V3.99999H828.206V4.99999H829.206ZM974.87 15.5469L974.396 16.4272L974.402 16.4305L974.87 15.5469ZM1005.22 44.7265L1004.35 45.2209L1004.35 45.2233L1005.22 44.7265ZM1004.99 131.562L1004.12 131.058L1004.12 131.059L1004.99 131.562ZM974.167 160.273L974.621 161.165L974.621 161.165L974.167 160.273ZM865.417 170.469H864.417V171.469H865.417V170.469ZM865.417 124.766V123.766H864.417V124.766H865.417ZM937.722 120.195L937.265 119.306L937.261 119.308L937.722 120.195ZM951.198 107.422L952.072 107.909L952.075 107.903L951.198 107.422ZM951.198 68.8672L950.325 69.3539L950.328 69.3592L951.198 68.8672ZM937.722 56.2109L937.275 57.1054L937.275 57.1054L937.722 56.2109ZM887.214 51.7578V50.7578H886.214V51.7578H887.214ZM887.214 245V246H888.214V245H887.214ZM829.206 245H830.206V4.99999H829.206H828.206V245H829.206ZM829.206 4.99999V5.99999H928.347V4.99999V3.99999H829.206V4.99999ZM928.347 4.99999V5.99999C946.185 5.99999 961.523 9.48953 974.396 16.4272L974.87 15.5469L975.345 14.6666C962.124 7.54171 946.446 3.99999 928.347 3.99999V4.99999ZM974.87 15.5469L974.402 16.4305C987.365 23.2977 997.341 32.8918 1004.35 45.2209L1005.22 44.7265L1006.09 44.2322C998.885 31.5613 988.626 21.7022 975.338 14.6632L974.87 15.5469ZM1005.22 44.7265L1004.35 45.2233C1011.36 57.4723 1014.89 71.749 1014.89 88.0859H1015.89H1016.89C1016.89 71.4541 1013.3 56.8246 1006.09 44.2298L1005.22 44.7265ZM1015.89 88.0859H1014.89C1014.89 104.498 1011.29 118.811 1004.12 131.058L1004.99 131.562L1005.85 132.067C1013.22 119.47 1016.89 104.799 1016.89 88.0859H1015.89ZM1004.99 131.562L1004.12 131.059C997.038 143.228 986.911 152.668 973.714 159.382L974.167 160.273L974.621 161.165C988.143 154.285 998.563 144.584 1005.85 132.066L1004.99 131.562ZM974.167 160.273L973.714 159.382C960.523 166.093 944.826 169.469 926.589 169.469V170.469V171.469C945.071 171.469 961.093 168.047 974.621 161.165L974.167 160.273ZM926.589 170.469V169.469H865.417V170.469V171.469H926.589V170.469ZM865.417 170.469H866.417V124.766H865.417H864.417V170.469H865.417ZM865.417 124.766V125.766H915.808V124.766V123.766H865.417V124.766ZM915.808 124.766V125.766C924.668 125.766 932.143 124.224 938.183 121.083L937.722 120.195L937.261 119.308C931.582 122.261 924.447 123.766 915.808 123.766V124.766ZM937.722 120.195L938.178 121.085C944.28 117.954 948.923 113.561 952.072 107.909L951.198 107.422L950.325 106.935C947.381 112.22 943.039 116.343 937.265 119.306L937.722 120.195ZM951.198 107.422L952.075 107.903C955.215 102.187 956.769 95.5708 956.769 88.0859H955.769H954.769C954.769 95.2886 953.276 101.563 950.322 106.94L951.198 107.422ZM955.769 88.0859H956.769C956.769 80.5258 955.216 73.9431 952.069 68.3751L951.198 68.8672L950.328 69.3592C953.275 74.5725 954.769 80.8023 954.769 88.0859H955.769ZM951.198 68.8672L952.072 68.3805C948.921 62.7252 944.275 58.3695 938.169 55.3165L937.722 56.2109L937.275 57.1054C943.044 59.9899 947.382 64.0717 950.325 69.3539L951.198 68.8672ZM937.722 56.2109L938.169 55.3165C932.057 52.2604 924.589 50.7578 915.808 50.7578V51.7578V52.7578C924.37 52.7578 931.512 54.224 937.275 57.1054L937.722 56.2109ZM915.808 51.7578V50.7578H887.214V51.7578V52.7578H915.808V51.7578ZM887.214 51.7578H886.214V245H887.214H888.214V51.7578H887.214ZM887.214 245V244H829.206V245V246H887.214V245ZM1196.28 4.99999V3.99999H1195.28V4.99999H1196.28ZM1254.17 4.99999H1255.17V3.99999H1254.17V4.99999ZM1241.39 206.562L1242.23 207.105L1242.23 207.102L1241.39 206.562ZM1205.77 237.266L1206.19 238.17L1206.2 238.168L1205.77 237.266ZM1099.24 237.266L1098.81 238.168L1098.82 238.17L1099.24 237.266ZM1063.74 206.562L1062.89 207.099L1062.89 207.101L1063.74 206.562ZM1051.08 4.99999V3.99999H1050.08V4.99999H1051.08ZM1109.09 4.99999H1110.09V3.99999H1109.09V4.99999ZM1114.48 176.914L1113.6 177.399L1113.61 177.407L1114.48 176.914ZM1129.83 192.148L1130.32 191.276L1130.32 191.276L1129.83 192.148ZM1175.42 192.148L1174.93 191.276L1174.92 191.278L1175.42 192.148ZM1196.28 4.99999V5.99999H1254.17V4.99999V3.99999H1196.28V4.99999ZM1254.17 4.99999H1253.17V159.805H1254.17H1255.17V4.99999H1254.17ZM1254.17 159.805H1253.17C1253.17 177.53 1248.95 192.923 1240.55 206.023L1241.39 206.562L1242.23 207.102C1250.87 193.639 1255.17 177.86 1255.17 159.805H1254.17ZM1241.39 206.562L1240.55 206.02C1232.14 219.056 1220.42 229.171 1205.34 236.363L1205.77 237.266L1206.2 238.168C1221.59 230.829 1233.61 220.475 1242.23 207.105L1241.39 206.562ZM1205.77 237.266L1205.34 236.361C1190.26 243.475 1172.72 247.047 1152.68 247.047V248.047V249.047C1172.96 249.047 1190.8 245.432 1206.19 238.17L1205.77 237.266ZM1152.68 248.047V247.047C1132.41 247.047 1114.75 243.474 1099.67 236.361L1099.24 237.266L1098.82 238.17C1114.21 245.432 1132.17 249.047 1152.68 249.047V248.047ZM1099.24 237.266L1099.67 236.363C1084.6 229.171 1072.91 219.057 1064.58 206.024L1063.74 206.562L1062.89 207.101C1071.44 220.474 1083.42 230.829 1098.81 238.168L1099.24 237.266ZM1063.74 206.562L1064.58 206.026C1056.26 192.926 1052.08 177.532 1052.08 159.805H1051.08H1050.08C1050.08 177.859 1054.34 193.636 1062.89 207.099L1063.74 206.562ZM1051.08 159.805H1052.08V4.99999H1051.08H1050.08V159.805H1051.08ZM1051.08 4.99999V5.99999H1109.09V4.99999V3.99999H1051.08V4.99999ZM1109.09 4.99999H1108.09V154.766H1109.09H1110.09V4.99999H1109.09ZM1109.09 154.766H1108.09C1108.09 163.196 1109.92 170.749 1113.6 177.399L1114.48 176.914L1115.35 176.429C1111.85 170.11 1110.09 162.898 1110.09 154.766H1109.09ZM1114.48 176.914L1113.61 177.407C1117.37 184.052 1122.62 189.261 1129.34 193.021L1129.83 192.148L1130.32 191.276C1123.91 187.692 1118.93 182.745 1115.35 176.421L1114.48 176.914ZM1129.83 192.148L1129.34 193.021C1136.07 196.789 1143.86 198.656 1152.68 198.656V197.656V196.656C1144.15 196.656 1136.71 194.852 1130.32 191.276L1129.83 192.148ZM1152.68 197.656V198.656C1161.5 198.656 1169.25 196.789 1175.91 193.019L1175.42 192.148L1174.92 191.278C1168.61 194.852 1161.21 196.656 1152.68 196.656V197.656ZM1175.42 192.148L1175.9 193.021C1182.62 189.261 1187.87 184.052 1191.64 177.407L1190.77 176.914L1189.9 176.421C1186.32 182.745 1181.33 187.692 1174.93 191.276L1175.42 192.148ZM1190.77 176.914L1191.64 177.407C1195.4 170.756 1197.28 163.2 1197.28 154.766H1196.28H1195.28C1195.28 162.894 1193.47 170.103 1189.9 176.421L1190.77 176.914ZM1196.28 154.766H1197.28V4.99999H1196.28H1195.28V154.766H1196.28ZM1426.85 76.9531L1425.85 77.0436L1425.94 77.9531H1426.85V76.9531ZM1416.42 56.9141L1415.8 57.697L1415.81 57.7056L1416.42 56.9141ZM1371.54 52.5781L1371.17 51.6467L1371.17 51.6467L1371.54 52.5781ZM1360.29 60.6641L1361.09 61.2611L1361.1 61.2522L1360.29 60.6641ZM1356.42 72.2656L1357.42 72.3091L1357.42 72.2963L1357.42 72.2835L1356.42 72.2656ZM1358.53 81.7578L1357.66 82.2539L1357.67 82.2632L1357.67 82.2723L1358.53 81.7578ZM1365.56 89.0234L1364.99 89.8456L1365 89.8539L1365.02 89.8619L1365.56 89.0234ZM1376.81 94.4141L1377.15 93.4723L1377.15 93.4723L1376.81 94.4141ZM1391.58 98.5156L1391.8 97.5404L1391.79 97.5378L1391.58 98.5156ZM1412.2 103.203L1411.98 104.178L1411.99 104.18L1412.2 103.203ZM1443.61 113.516L1443.18 114.419L1443.18 114.421L1443.61 113.516ZM1466.58 128.867L1465.88 129.588L1465.89 129.592L1466.58 128.867ZM1480.76 149.375L1479.83 149.758L1479.83 149.758L1480.76 149.375ZM1485.68 175.391L1486.68 175.396L1486.68 175.382L1485.68 175.391ZM1474.19 214.414L1473.37 213.842L1473.37 213.842L1474.19 214.414ZM1441.5 239.375L1441.12 238.449L1441.12 238.449L1441.5 239.375ZM1337.79 239.023L1338.16 238.096L1338.16 238.096L1337.79 239.023ZM1290.21 165.078V164.078H1289.2L1289.21 165.091L1290.21 165.078ZM1345.76 165.078L1346.75 165.018L1346.7 164.078H1345.76V165.078ZM1351.97 184.414L1351.15 184.994L1351.15 184.994L1351.97 184.414ZM1367.08 196.133L1366.7 197.057L1366.7 197.058L1367.08 196.133ZM1409.51 196.953L1409.15 196.018L1409.15 196.02L1409.51 196.953ZM1422.28 188.164L1421.5 187.543L1421.5 187.543L1422.28 188.164ZM1426.85 175.273L1427.85 175.29L1427.85 175.273L1427.85 175.256L1426.85 175.273ZM1422.63 163.672L1421.86 164.312L1421.87 164.321L1422.63 163.672ZM1409.97 155.234L1409.58 156.153L1409.59 156.156L1409.59 156.159L1409.97 155.234ZM1388.41 148.555L1388.18 149.528L1388.19 149.529L1388.41 148.555ZM1363.33 142.695L1363.56 141.722L1363.56 141.721L1363.33 142.695ZM1314.23 119.609L1313.57 120.354L1313.57 120.357L1314.23 119.609ZM1296.42 76.25L1297.42 76.2543L1297.42 76.2447L1296.42 76.25ZM1308.37 37.2266L1307.56 36.6421L1307.56 36.6421L1308.37 37.2266ZM1341.77 11.0938L1342.17 12.0092L1342.17 12.0092L1341.77 11.0938ZM1438.8 11.2109L1438.38 12.1184L1438.39 12.1213L1438.8 11.2109ZM1470.79 37.5781L1471.63 37.0221L1471.63 37.0221L1470.79 37.5781ZM1482.4 76.9531V77.9531H1483.41L1483.4 76.9426L1482.4 76.9531ZM1426.85 76.9531L1427.85 76.8626C1427.04 68.0246 1423.45 61.0773 1417.03 56.1226L1416.42 56.9141L1415.81 57.7056C1421.74 62.2821 1425.09 68.6941 1425.85 77.0436L1426.85 76.9531ZM1416.42 56.9141L1417.04 56.1312C1410.71 51.0954 1401.74 48.6484 1390.29 48.6484V49.6484V50.6484C1401.49 50.6484 1409.95 53.0453 1415.8 57.6969L1416.42 56.9141ZM1390.29 49.6484V48.6484C1382.71 48.6484 1376.33 49.6341 1371.17 51.6467L1371.54 52.5781L1371.9 53.5096C1376.75 51.6159 1382.87 50.6484 1390.29 50.6484V49.6484ZM1371.54 52.5781L1371.17 51.6467C1366.04 53.6512 1362.12 56.4478 1359.48 60.0759L1360.29 60.6641L1361.1 61.2522C1363.46 58.0053 1367.03 55.4113 1371.9 53.5096L1371.54 52.5781ZM1360.29 60.6641L1359.48 60.0671C1356.85 63.6019 1355.5 67.6738 1355.42 72.2478L1356.42 72.2656L1357.42 72.2835C1357.49 68.1074 1358.72 64.4449 1361.09 61.2611L1360.29 60.6641ZM1356.42 72.2656L1355.42 72.2222C1355.26 75.9771 1355.99 79.3333 1357.66 82.2539L1358.53 81.7578L1359.4 81.2617C1357.94 78.7135 1357.27 75.7417 1357.42 72.3091L1356.42 72.2656ZM1358.53 81.7578L1357.67 82.2723C1359.4 85.1468 1361.85 87.6684 1364.99 89.8456L1365.56 89.0234L1366.13 88.2012C1363.18 86.1598 1360.94 83.8376 1359.39 81.2433L1358.53 81.7578ZM1365.56 89.0234L1365.02 89.8619C1368.22 91.9445 1372.04 93.7732 1376.47 95.3558L1376.81 94.4141L1377.15 93.4723C1372.83 91.9299 1369.15 90.1649 1366.11 88.185L1365.56 89.0234ZM1376.81 94.4141L1376.47 95.3558C1380.9 96.9357 1385.86 98.3141 1391.37 99.4934L1391.58 98.5156L1391.79 97.5378C1386.35 96.3734 1381.47 95.0174 1377.15 93.4723L1376.81 94.4141ZM1391.58 98.5156L1391.35 99.4908L1411.98 104.178L1412.2 103.203L1412.42 102.228L1391.8 97.5405L1391.58 98.5156ZM1412.2 103.203L1411.99 104.18C1423.8 106.746 1434.2 110.161 1443.18 114.419L1443.61 113.516L1444.04 112.612C1434.89 108.276 1424.35 104.817 1412.41 102.226L1412.2 103.203ZM1443.61 113.516L1443.18 114.421C1452.24 118.679 1459.8 123.738 1465.88 129.588L1466.58 128.867L1467.27 128.147C1461.01 122.121 1453.25 116.946 1444.03 112.611L1443.61 113.516ZM1466.58 128.867L1465.89 129.592C1472.04 135.436 1476.68 142.156 1479.83 149.758L1480.76 149.375L1481.68 148.992C1478.42 141.125 1473.61 134.173 1467.26 128.142L1466.58 128.867ZM1480.76 149.375L1479.83 149.758C1482.98 157.357 1484.6 165.899 1484.68 175.399L1485.68 175.391L1486.68 175.382C1486.6 165.663 1484.94 156.862 1481.68 148.992L1480.76 149.375ZM1485.68 175.391L1484.68 175.385C1484.6 190.369 1480.82 203.172 1473.37 213.842L1474.19 214.414L1475.01 214.986C1482.72 203.937 1486.6 190.725 1486.68 175.396L1485.68 175.391ZM1474.19 214.414L1473.37 213.842C1465.92 224.519 1455.19 232.728 1441.12 238.449L1441.5 239.375L1441.87 240.301C1456.24 234.459 1467.31 226.028 1475.01 214.986L1474.19 214.414ZM1441.5 239.375L1441.12 238.449C1427.13 244.169 1410.2 247.047 1390.29 247.047V248.047V249.047C1410.38 249.047 1427.58 246.144 1441.88 240.301L1441.5 239.375ZM1390.29 248.047V247.047C1370.31 247.047 1352.94 244.053 1338.16 238.096L1337.79 239.023L1337.41 239.951C1352.48 246.025 1370.11 249.047 1390.29 249.047V248.047ZM1337.79 239.023L1338.16 238.096C1323.41 232.148 1311.97 223.128 1303.81 211.042L1302.98 211.602L1302.15 212.161C1310.56 224.606 1322.32 233.868 1337.41 239.951L1337.79 239.023ZM1302.98 211.602L1303.81 211.042C1295.66 198.976 1291.44 183.672 1291.21 165.066L1290.21 165.078L1289.21 165.091C1289.45 183.984 1293.74 199.696 1302.15 212.161L1302.98 211.602ZM1290.21 165.078V166.078H1345.76V165.078V164.078H1290.21V165.078ZM1345.76 165.078L1344.76 165.139C1345.24 173.018 1347.35 179.654 1351.15 184.994L1351.97 184.414L1352.78 183.834C1349.24 178.861 1347.21 172.607 1346.75 165.018L1345.76 165.078ZM1351.97 184.414L1351.15 184.994C1354.94 190.318 1360.14 194.336 1366.7 197.057L1367.08 196.133L1367.47 195.209C1361.22 192.618 1356.33 188.823 1352.78 183.834L1351.97 184.414ZM1367.08 196.133L1366.7 197.058C1373.33 199.773 1380.97 201.117 1389.58 201.117V200.117V199.117C1381.17 199.117 1373.8 197.805 1367.46 195.207L1367.08 196.133ZM1389.58 200.117V201.117C1397.48 201.117 1404.25 200.052 1409.87 197.886L1409.51 196.953L1409.15 196.02C1403.82 198.073 1397.31 199.117 1389.58 199.117V200.117ZM1409.51 196.953L1409.86 197.888C1415.54 195.73 1419.96 192.707 1423.06 188.785L1422.28 188.164L1421.5 187.543C1418.66 191.122 1414.57 193.958 1409.15 196.018L1409.51 196.953ZM1422.28 188.164L1423.06 188.785C1426.17 184.86 1427.77 180.35 1427.85 175.29L1426.85 175.273L1425.85 175.257C1425.78 179.884 1424.33 183.968 1421.5 187.543L1422.28 188.164ZM1426.85 175.273L1427.85 175.256C1427.77 170.512 1426.29 166.416 1423.39 163.023L1422.63 163.672L1421.87 164.321C1424.44 167.334 1425.78 170.973 1425.85 175.291L1426.85 175.273ZM1422.63 163.672L1423.4 163.032C1420.52 159.582 1416.15 156.689 1410.35 154.309L1409.97 155.234L1409.59 156.159C1415.21 158.467 1419.27 161.199 1421.86 164.312L1422.63 163.672ZM1409.97 155.234L1410.37 154.316C1404.67 151.862 1397.42 149.62 1388.64 147.581L1388.41 148.555L1388.19 149.529C1396.9 151.552 1404.03 153.763 1409.58 156.153L1409.97 155.234ZM1388.41 148.555L1388.64 147.581L1363.56 141.722L1363.33 142.695L1363.11 143.669L1388.18 149.528L1388.41 148.555ZM1363.33 142.695L1363.56 141.721C1342.89 136.98 1326.69 129.344 1314.9 118.862L1314.23 119.609L1313.57 120.357C1325.68 131.124 1342.22 138.879 1363.11 143.67L1363.33 142.695ZM1314.23 119.609L1314.9 118.864C1303.19 108.379 1297.34 94.2142 1297.42 76.2543L1296.42 76.25L1295.42 76.2457C1295.34 94.692 1301.37 109.434 1313.57 120.354L1314.23 119.609ZM1296.42 76.25L1297.42 76.2447C1297.34 61.5951 1301.27 48.7975 1309.18 37.811L1308.37 37.2266L1307.56 36.6421C1299.38 47.9993 1295.34 61.2174 1295.42 76.2553L1296.42 76.25ZM1308.37 37.2266L1309.18 37.811C1317.11 26.8019 1328.1 18.1968 1342.17 12.0092L1341.77 11.0938L1341.37 10.1783C1327.01 16.4907 1315.73 25.3075 1307.56 36.6421L1308.37 37.2266ZM1341.77 11.0938L1342.17 12.0092C1356.25 5.82372 1372.32 2.71874 1390.4 2.71874V1.71874V0.718741C1372.09 0.718741 1355.73 3.86377 1341.37 10.1783L1341.77 11.0938ZM1390.4 1.71874V2.71874C1408.89 2.71874 1424.87 5.86378 1438.38 12.1184L1438.8 11.2109L1439.22 10.3034C1425.39 3.90182 1409.11 0.718741 1390.4 0.718741V1.71874ZM1438.8 11.2109L1438.39 12.1213C1451.99 18.3029 1462.5 26.9771 1469.96 38.1342L1470.79 37.5781L1471.63 37.0221C1463.93 25.5229 1453.12 16.619 1439.22 10.3006L1438.8 11.2109ZM1470.79 37.5781L1469.96 38.1342C1477.42 49.2854 1481.24 62.2169 1481.4 76.9636L1482.4 76.9531L1483.4 76.9426C1483.24 61.8456 1479.32 48.5271 1471.63 37.0221L1470.79 37.5781ZM1482.4 76.9531V75.9531H1426.85V76.9531V77.9531H1482.4V76.9531ZM196.199 559.953L195.324 559.469L195.324 559.469L196.199 559.953ZM158.699 597.986L158.218 597.109L158.216 597.11L158.699 597.986ZM52.9109 597.879L53.3972 597.005L53.3972 597.005L52.9109 597.879ZM15.5174 559.847L14.6408 560.328L14.6432 560.332L15.5174 559.847ZM15.5174 437.865L14.6424 437.381L14.6408 437.384L15.5174 437.865ZM52.9109 399.832L53.3942 400.708L53.3942 400.708L52.9109 399.832ZM158.699 399.832L158.216 400.708L158.218 400.709L158.699 399.832ZM196.199 437.865L195.324 438.349L195.324 438.349L196.199 437.865ZM150.07 462.901L149.143 463.277L149.146 463.282L150.07 462.901ZM132.811 440.635L132.251 441.463L132.255 441.466L132.811 440.635ZM78.9052 440.635L79.4617 441.466L79.4617 441.466L78.9052 440.635ZM61.5401 462.901L60.6159 462.519L60.6135 462.525L61.5401 462.901ZM61.5401 534.918L60.6135 535.294L60.6159 535.299L61.5401 534.918ZM78.9052 557.183L79.4617 556.352L79.4617 556.352L78.9052 557.183ZM132.811 557.183L132.255 556.352L132.251 556.355L132.811 557.183ZM150.07 534.918L149.146 534.536L149.143 534.542L150.07 534.918ZM210.049 498.909H209.049C209.049 522.788 204.457 542.96 195.324 559.469L196.199 559.953L197.074 560.437C206.408 543.565 211.049 523.041 211.049 498.909H210.049ZM196.199 559.953L195.324 559.469C186.177 576.005 173.809 588.541 158.218 597.109L158.699 597.986L159.181 598.862C175.124 590.101 187.756 577.282 197.074 560.437L196.199 559.953ZM158.699 597.986L158.216 597.11C142.681 605.686 125.236 609.983 105.858 609.983V610.983V611.983C125.543 611.983 143.326 607.615 159.183 598.861L158.699 597.986ZM105.858 610.983V609.983C86.4103 609.983 68.9312 605.651 53.3972 597.005L52.9109 597.879L52.4246 598.753C68.2826 607.579 86.1018 611.983 105.858 611.983V610.983ZM52.9109 597.879L53.3972 597.005C37.8738 588.366 25.5395 575.827 16.3916 559.361L15.5174 559.847L14.6432 560.332C23.9612 577.105 36.5559 589.921 52.4246 598.753L52.9109 597.879ZM15.5174 559.847L16.394 559.365C7.33127 542.856 2.7745 522.718 2.7745 498.909H1.7745H0.774503C0.774503 522.969 5.37967 543.457 14.6408 560.328L15.5174 559.847ZM1.7745 498.909H2.7745C2.7745 475.029 7.33149 454.856 16.394 438.346L15.5174 437.865L14.6408 437.384C5.37945 454.255 0.774503 474.778 0.774503 498.909H1.7745ZM15.5174 437.865L16.3924 438.349C25.5403 421.813 37.8736 409.276 53.3942 400.708L52.9109 399.832L52.4276 398.957C36.5561 407.719 23.9604 420.537 14.6424 437.381L15.5174 437.865ZM52.9109 399.832L53.3942 400.708C68.9287 392.132 86.4089 387.835 105.858 387.835V386.835V385.835C86.1032 385.835 68.2851 390.203 52.4276 398.957L52.9109 399.832ZM105.858 386.835V387.835C125.236 387.835 142.681 392.132 158.216 400.708L158.699 399.832L159.183 398.957C143.326 390.203 125.543 385.835 105.858 385.835V386.835ZM158.699 399.832L158.218 400.709C173.809 409.277 186.177 421.814 195.324 438.349L196.199 437.865L197.074 437.381C187.756 420.536 175.124 407.717 159.181 398.956L158.699 399.832ZM196.199 437.865L195.324 438.349C204.457 454.858 209.049 475.03 209.049 498.909H210.049H211.049C211.049 474.777 206.408 454.253 197.074 437.381L196.199 437.865ZM156.142 498.909H157.142C157.142 484.616 155.106 472.475 150.994 462.519L150.07 462.901L149.146 463.282C153.13 472.929 155.142 484.794 155.142 498.909H156.142ZM150.07 462.901L150.997 462.525C146.957 452.57 141.089 444.976 133.368 439.804L132.811 440.635L132.255 441.466C139.591 446.38 145.228 453.629 149.143 463.277L150.07 462.901ZM132.811 440.635L133.372 439.807C125.723 434.634 116.535 432.071 105.858 432.071V433.071V434.071C116.204 434.071 124.986 436.55 132.251 441.463L132.811 440.635ZM105.858 433.071V432.071C95.2508 432.071 86.0657 434.635 78.3487 439.804L78.9052 440.635L79.4617 441.466C86.8015 436.55 95.5851 434.071 105.858 434.071V433.071ZM78.9052 440.635L78.3487 439.804C70.6295 444.974 64.7265 452.567 60.6159 462.519L61.5401 462.901L62.4644 463.282C66.4503 453.632 72.124 446.381 79.4617 441.466L78.9052 440.635ZM61.5401 462.901L60.6135 462.525C56.5743 472.478 54.5742 484.617 54.5742 498.909H55.5742H56.5742C56.5742 484.792 58.5515 472.925 62.4667 463.277L61.5401 462.901ZM55.5742 498.909H54.5742C54.5742 513.201 56.5743 525.34 60.6135 535.294L61.5401 534.918L62.4667 534.542C58.5515 524.893 56.5742 513.026 56.5742 498.909H55.5742ZM61.5401 534.918L60.6159 535.299C64.7265 545.251 70.6295 552.844 78.3487 558.014L78.9052 557.183L79.4617 556.352C72.124 551.438 66.4503 544.186 62.4644 534.536L61.5401 534.918ZM78.9052 557.183L78.3487 558.014C86.0657 563.183 95.2508 565.747 105.858 565.747V564.747V563.747C95.5851 563.747 86.8015 561.269 79.4617 556.352L78.9052 557.183ZM105.858 564.747V565.747C116.535 565.747 125.723 563.184 133.372 558.012L132.811 557.183L132.251 556.355C124.986 561.268 116.204 563.747 105.858 563.747V564.747ZM132.811 557.183L133.368 558.014C141.089 552.843 146.957 545.248 150.997 535.294L150.07 534.918L149.143 534.542C145.228 544.189 139.591 551.439 132.255 556.352L132.811 557.183ZM150.07 534.918L150.994 535.299C155.106 525.344 157.142 513.203 157.142 498.909H156.142H155.142C155.142 513.025 153.13 524.889 149.146 534.536L150.07 534.918ZM426.526 389.818H427.526V388.818H426.526V389.818ZM426.526 608V609H427.526V608H426.526ZM381.782 608L380.958 608.568L381.256 609H381.782V608ZM294.956 482.077L295.78 481.509L295.481 481.077H294.956V482.077ZM293.571 482.077V481.077H292.571V482.077H293.571ZM293.571 608V609H294.571V608H293.571ZM240.837 608H239.837V609H240.837V608ZM240.837 389.818V388.818H239.837V389.818H240.837ZM286.221 389.818L287.046 389.254L286.748 388.818H286.221V389.818ZM372.087 515.528L371.261 516.092L371.559 516.528H372.087V515.528ZM373.898 515.528V516.528H374.898V515.528H373.898ZM373.898 389.818V388.818H372.898V389.818H373.898ZM426.526 389.818H425.526V608H426.526H427.526V389.818H426.526ZM426.526 608V607H381.782V608V609H426.526V608ZM381.782 608L382.605 607.432L295.78 481.509L294.956 482.077L294.133 482.644L380.958 608.568L381.782 608ZM294.956 482.077V481.077H293.571V482.077V483.077H294.956V482.077ZM293.571 482.077H292.571V608H293.571H294.571V482.077H293.571ZM293.571 608V607H240.837V608V609H293.571V608ZM240.837 608H241.837V389.818H240.837H239.837V608H240.837ZM240.837 389.818V390.818H286.221V389.818V388.818H240.837V389.818ZM286.221 389.818L285.395 390.382L371.261 516.092L372.087 515.528L372.913 514.964L287.046 389.254L286.221 389.818ZM372.087 515.528V516.528H373.898V515.528V514.528H372.087V515.528ZM373.898 515.528H374.898V389.818H373.898H372.898V515.528H373.898ZM373.898 389.818V390.818H426.526V389.818V388.818H373.898V389.818ZM722.185 468.866V469.866H723.287L723.18 468.769L722.185 468.866ZM668.918 468.866L667.926 468.995L668.039 469.866H668.918V468.866ZM664.55 454.058L663.655 454.505L663.655 454.505L664.55 454.058ZM655.814 442.766L656.467 442.008L656.467 442.008L655.814 442.766ZM642.923 435.628L642.595 436.572L642.603 436.575L642.611 436.578L642.923 435.628ZM599.244 440.848L598.684 440.02L598.681 440.022L599.244 440.848ZM581.666 463.327L580.744 462.939L580.742 462.945L581.666 463.327ZM581.773 535.344L580.851 535.731L580.854 535.739L581.773 535.344ZM599.351 557.396L598.8 558.231L598.809 558.237L599.351 557.396ZM642.178 562.51L641.882 561.554L641.878 561.556L642.178 562.51ZM654.855 556.011L655.472 556.798L655.474 556.797L654.855 556.011ZM663.911 545.464L663.044 544.965L663.041 544.97L663.911 545.464ZM668.918 531.295L668.924 530.295L668.079 530.29L667.933 531.122L668.918 531.295ZM722.185 531.615L723.18 531.71L723.284 530.622L722.191 530.615L722.185 531.615ZM713.768 560.166L712.874 559.719L712.871 559.724L713.768 560.166ZM694.699 585.841L695.387 586.567L695.39 586.564L694.699 585.841ZM665.082 604.165L664.719 603.233L664.717 603.234L665.082 604.165ZM572.185 597.986L571.695 598.858L571.7 598.86L572.185 597.986ZM535.324 559.847L536.204 559.371L535.324 559.847ZM535.537 437.865L534.66 437.384L534.66 437.384L535.537 437.865ZM661.886 392.375L661.574 393.325L661.579 393.327L661.886 392.375ZM691.503 408.355L690.866 409.126L690.87 409.13L691.503 408.355ZM722.185 468.866V467.866H668.918V468.866V469.866H722.185V468.866ZM668.918 468.866L669.909 468.738C669.186 463.171 667.701 458.126 665.444 453.611L664.55 454.058L663.655 454.505C665.801 458.798 667.228 463.624 667.926 468.995L668.918 468.866ZM664.55 454.058L665.444 453.611C663.185 449.093 660.192 445.222 656.467 442.008L655.814 442.766L655.161 443.523C658.68 446.559 661.511 450.217 663.655 454.505L664.55 454.058ZM655.814 442.766L656.467 442.008C652.736 438.79 648.321 436.349 643.235 434.678L642.923 435.628L642.611 436.578C647.469 438.174 651.647 440.492 655.161 443.523L655.814 442.766ZM642.923 435.628L643.252 434.683C638.231 432.937 632.685 432.071 626.624 432.071V433.071V434.071C632.494 434.071 637.814 434.91 642.595 436.572L642.923 435.628ZM626.624 433.071V432.071C615.871 432.071 606.543 434.708 598.684 440.02L599.244 440.848L599.804 441.676C607.287 436.619 616.211 434.071 626.624 434.071V433.071ZM599.244 440.848L598.681 440.022C590.899 445.331 584.926 452.989 580.744 462.939L581.666 463.327L582.588 463.714C586.645 454.062 592.391 446.734 599.808 441.674L599.244 440.848ZM581.666 463.327L580.742 462.945C576.631 472.899 574.594 484.897 574.594 498.909H575.594H576.594C576.594 485.081 578.605 473.357 582.59 463.708L581.666 463.327ZM575.594 498.909H574.594C574.594 513.485 576.665 525.772 580.851 535.731L581.773 535.344L582.695 534.956C578.642 525.314 576.594 513.31 576.594 498.909H575.594ZM581.773 535.344L580.854 535.739C585.108 545.617 591.082 553.134 598.8 558.231L599.351 557.396L599.902 556.562C592.563 551.715 586.818 544.531 582.691 534.948L581.773 535.344ZM599.351 557.396L598.809 558.237C606.593 563.256 615.771 565.747 626.304 565.747V564.747V563.747C616.098 563.747 607.308 561.338 599.893 556.556L599.351 557.396ZM626.304 564.747V565.747C632.213 565.747 637.607 564.991 642.477 563.464L642.178 562.51L641.878 561.556C637.231 563.012 632.043 563.747 626.304 563.747V564.747ZM642.178 562.51L642.473 563.465C647.407 561.941 651.745 559.722 655.472 556.798L654.855 556.011L654.238 555.225C650.721 557.983 646.607 560.096 641.882 561.554L642.178 562.51ZM654.855 556.011L655.474 556.797C659.27 553.804 662.373 550.19 664.78 545.959L663.911 545.464L663.041 544.97C660.761 548.978 657.827 552.395 654.236 555.226L654.855 556.011ZM663.911 545.464L664.777 545.964C667.256 541.663 668.961 536.827 669.903 531.468L668.918 531.295L667.933 531.122C667.027 536.275 665.395 540.886 663.044 544.965L663.911 545.464ZM668.918 531.295L668.912 532.295L722.179 532.615L722.185 531.615L722.191 530.615L668.924 530.295L668.918 531.295ZM722.185 531.615L721.189 531.52C720.279 541.047 717.511 550.445 712.874 559.719L713.768 560.166L714.663 560.613C719.401 551.137 722.244 541.501 723.18 531.71L722.185 531.615ZM713.768 560.166L712.871 559.724C708.31 568.987 702.026 577.452 694.008 585.118L694.699 585.841L695.39 586.564C703.565 578.747 709.994 570.095 714.666 560.608L713.768 560.166ZM694.699 585.841L694.011 585.115C686.019 592.686 676.261 598.729 664.719 603.233L665.082 604.165L665.446 605.096C677.199 600.51 687.186 594.336 695.387 586.567L694.699 585.841ZM665.082 604.165L664.717 603.234C653.278 607.725 640.124 609.983 625.239 609.983V610.983V611.983C640.325 611.983 653.734 609.695 665.448 605.096L665.082 604.165ZM625.239 610.983V609.983C605.646 609.983 588.131 605.685 572.67 597.111L572.185 597.986L571.7 598.86C587.488 607.616 605.343 611.983 625.239 611.983V610.983ZM572.185 597.986L572.674 597.114C557.296 588.477 545.14 575.906 536.204 559.371L535.324 559.847L534.444 560.322C543.548 577.168 555.965 590.023 571.695 598.858L572.185 597.986ZM535.324 559.847L536.204 559.371C527.281 542.86 522.794 522.72 522.794 498.909H521.794H520.794C520.794 522.967 525.327 543.452 534.444 560.322L535.324 559.847ZM521.794 498.909H522.794C522.794 475.029 527.351 454.856 536.414 438.346L535.537 437.865L534.66 437.384C525.399 454.255 520.794 474.778 520.794 498.909H521.794ZM535.537 437.865L536.414 438.346C545.491 421.81 557.753 409.274 573.202 400.707L572.717 399.832L572.232 398.958C556.431 407.72 543.907 420.539 534.66 437.384L535.537 437.865ZM572.717 399.832L573.202 400.707C588.666 392.131 606.004 387.835 625.239 387.835V386.835V385.835C605.695 385.835 588.018 390.204 572.232 398.958L572.717 399.832ZM625.239 386.835V387.835C638.355 387.835 650.464 389.669 661.574 393.325L661.886 392.375L662.199 391.425C650.865 387.695 638.543 385.835 625.239 385.835V386.835ZM661.886 392.375L661.579 393.327C672.689 396.913 682.448 402.181 690.866 409.126L691.503 408.355L692.139 407.584C683.513 400.467 673.527 395.082 662.194 391.423L661.886 392.375ZM691.503 408.355L690.87 409.13C699.284 416.001 706.125 424.452 711.391 434.494L712.277 434.03L713.163 433.565C707.776 423.295 700.767 414.63 692.135 407.581L691.503 408.355ZM712.277 434.03L711.391 434.494C716.65 444.521 719.922 456.006 721.189 468.964L722.185 468.866L723.18 468.769C721.891 455.591 718.557 443.851 713.163 433.565L712.277 434.03ZM752.36 608H751.36V609H752.36V608ZM752.36 389.818V388.818H751.36V389.818H752.36ZM805.095 389.818H806.095V388.818H805.095V389.818ZM805.095 477.389H804.095V478.389H805.095V477.389ZM891.068 477.389V478.389H892.068V477.389H891.068ZM891.068 389.818V388.818H890.068V389.818H891.068ZM943.696 389.818H944.696V388.818H943.696V389.818ZM943.696 608V609H944.696V608H943.696ZM891.068 608H890.068V609H891.068V608ZM891.068 520.322H892.068V519.322H891.068V520.322ZM805.095 520.322V519.322H804.095V520.322H805.095ZM805.095 608V609H806.095V608H805.095ZM752.36 608H753.36V389.818H752.36H751.36V608H752.36ZM752.36 389.818V390.818H805.095V389.818V388.818H752.36V389.818ZM805.095 389.818H804.095V477.389H805.095H806.095V389.818H805.095ZM805.095 477.389V478.389H891.068V477.389V476.389H805.095V477.389ZM891.068 477.389H892.068V389.818H891.068H890.068V477.389H891.068ZM891.068 389.818V390.818H943.696V389.818V388.818H891.068V389.818ZM943.696 389.818H942.696V608H943.696H944.696V389.818H943.696ZM943.696 608V607H891.068V608V609H943.696V608ZM891.068 608H892.068V520.322H891.068H890.068V608H891.068ZM891.068 520.322V519.322H805.095V520.322V521.322H891.068V520.322ZM805.095 520.322H804.095V608H805.095H806.095V520.322H805.095ZM805.095 608V607H752.36V608V609H805.095V608ZM1023.97 608V609H1024.7L1024.92 608.299L1023.97 608ZM967.293 608L966.345 607.68L965.9 609H967.293V608ZM1040.91 389.818V388.818H1040.19L1039.96 389.498L1040.91 389.818ZM1111.11 389.818L1112.06 389.498L1111.83 388.818H1111.11V389.818ZM1184.73 608V609H1186.12L1185.68 607.68L1184.73 608ZM1128.05 608L1127.1 608.3L1127.32 609H1128.05V608ZM1076.81 444.79L1077.76 444.49L1077.54 443.79H1076.81V444.79ZM1075.11 444.79V443.79H1074.37L1074.15 444.491L1075.11 444.79ZM1016.41 522.134V521.134H1015.41V522.134H1016.41ZM1134.87 522.134H1135.87V521.134H1134.87V522.134ZM1134.87 562.19V563.19H1135.87V562.19H1134.87ZM1016.41 562.19H1015.41V563.19H1016.41V562.19ZM1023.97 608V607H967.293V608V609H1023.97V608ZM967.293 608L968.24 608.32L1041.86 390.138L1040.91 389.818L1039.96 389.498L966.345 607.68L967.293 608ZM1040.91 389.818V390.818H1111.11V389.818V388.818H1040.91V389.818ZM1111.11 389.818L1110.17 390.138L1183.78 608.32L1184.73 608L1185.68 607.68L1112.06 389.498L1111.11 389.818ZM1184.73 608V607H1128.05V608V609H1184.73V608ZM1128.05 608L1129.01 607.7L1077.76 444.49L1076.81 444.79L1075.86 445.089L1127.1 608.3L1128.05 608ZM1076.81 444.79V443.79H1075.11V444.79V445.79H1076.81V444.79ZM1075.11 444.79L1074.15 444.491L1023.01 607.701L1023.97 608L1024.92 608.299L1076.06 445.089L1075.11 444.79ZM1016.41 522.134V523.134H1134.87V522.134V521.134H1016.41V522.134ZM1134.87 522.134H1133.87V562.19H1134.87H1135.87V522.134H1134.87ZM1134.87 562.19V561.19H1016.41V562.19V563.19H1134.87V562.19ZM1016.41 562.19H1017.41V522.134H1016.41H1015.41V562.19H1016.41ZM1260.95 389.818H1261.95V388.818H1260.95V389.818ZM1260.95 608V609H1261.95V608H1260.95ZM1208.22 608H1207.22V609H1208.22V608ZM1208.22 389.818V388.818H1207.22V389.818H1208.22ZM1260.95 389.818H1259.95V608H1260.95H1261.95V389.818H1260.95ZM1260.95 608V607H1208.22V608V609H1260.95V608ZM1208.22 608H1209.22V389.818H1208.22H1207.22V608H1208.22ZM1208.22 389.818V390.818H1260.95V389.818V388.818H1208.22V389.818ZM1479.75 389.818H1480.75V388.818H1479.75V389.818ZM1479.75 608V609H1480.75V608H1479.75ZM1435 608L1434.18 608.568L1434.48 609H1435V608ZM1348.18 482.077L1349 481.509L1348.7 481.077H1348.18V482.077ZM1346.79 482.077V481.077H1345.79V482.077H1346.79ZM1346.79 608V609H1347.79V608H1346.79ZM1294.06 608H1293.06V609H1294.06V608ZM1294.06 389.818V388.818H1293.06V389.818H1294.06ZM1339.44 389.818L1340.27 389.254L1339.97 388.818H1339.44V389.818ZM1425.31 515.528L1424.48 516.092L1424.78 516.528H1425.31V515.528ZM1427.12 515.528V516.528H1428.12V515.528H1427.12ZM1427.12 389.818V388.818H1426.12V389.818H1427.12ZM1479.75 389.818H1478.75V608H1479.75H1480.75V389.818H1479.75ZM1479.75 608V607H1435V608V609H1479.75V608ZM1435 608L1435.83 607.432L1349 481.509L1348.18 482.077L1347.36 482.644L1434.18 608.568L1435 608ZM1348.18 482.077V481.077H1346.79V482.077V483.077H1348.18V482.077ZM1346.79 482.077H1345.79V608H1346.79H1347.79V482.077H1346.79ZM1346.79 608V607H1294.06V608V609H1346.79V608ZM1294.06 608H1295.06V389.818H1294.06H1293.06V608H1294.06ZM1294.06 389.818V390.818H1339.44V389.818V388.818H1294.06V389.818ZM1339.44 389.818L1338.62 390.382L1424.48 516.092L1425.31 515.528L1426.14 514.964L1340.27 389.254L1339.44 389.818ZM1425.31 515.528V516.528H1427.12V515.528V514.528H1425.31V515.528ZM1427.12 515.528H1428.12V389.818H1427.12H1426.12V515.528H1427.12ZM1427.12 389.818V390.818H1479.75V389.818V388.818H1427.12V389.818Z" fill="black" mask="url(#path-1-outside-1_126_12)"/>
<path d="M223.205 91.9531V92.9531H224.308L224.2 91.8558L223.205 91.9531ZM164.611 91.9531L163.62 92.0819L163.733 92.9531H164.611V91.9531ZM159.807 75.664L158.912 76.1113L158.912 76.1113L159.807 75.664ZM150.197 63.2422L150.851 62.485L150.851 62.485L150.197 63.2422ZM136.018 55.3906L135.689 56.3351L135.697 56.338L135.705 56.3407L136.018 55.3906ZM87.9707 61.1328L87.4107 60.3043L87.4071 60.3067L87.9707 61.1328ZM68.6348 85.8594L67.7129 85.4719L67.7105 85.4776L68.6348 85.8594ZM68.752 165.078L67.83 165.466L67.8335 165.474L68.752 165.078ZM88.0879 189.336L87.5368 190.17L87.5459 190.176L88.0879 189.336ZM135.197 194.961L134.902 194.005L134.898 194.007L135.197 194.961ZM149.143 187.813L149.76 188.599L149.762 188.598L149.143 187.813ZM159.104 176.211L158.237 175.712L158.234 175.716L159.104 176.211ZM164.611 160.625L164.617 159.625L163.773 159.62L163.626 160.452L164.611 160.625ZM223.205 160.977L224.201 161.072L224.305 159.983L223.211 159.977L223.205 160.977ZM213.947 192.383L213.053 191.936L213.05 191.941L213.947 192.383ZM192.971 220.625L193.658 221.351L193.662 221.348L192.971 220.625ZM160.393 240.781L160.029 239.85L160.027 239.85L160.393 240.781ZM58.2051 233.984L57.7154 234.856L57.7201 234.859L58.2051 233.984ZM17.6582 192.031L18.538 191.556L17.6582 192.031ZM17.8926 57.8516L17.016 57.3704L17.016 57.3704L17.8926 57.8516ZM156.877 7.8125L156.564 8.76239L156.57 8.76415L156.877 7.8125ZM189.455 25.3906L188.819 26.162L188.823 26.1651L189.455 25.3906ZM223.205 91.9531V90.9531H164.611V91.9531V92.9531H223.205V91.9531ZM164.611 91.9531L165.603 91.8243C164.809 85.7111 163.179 80.1718 160.701 75.2168L159.807 75.664L158.912 76.1113C161.278 80.8438 162.851 86.1639 163.62 92.0819L164.611 91.9531ZM159.807 75.664L160.701 75.2168C158.222 70.2584 154.938 66.0114 150.851 62.485L150.197 63.2422L149.544 63.9993C153.425 67.348 156.548 71.3822 158.912 76.1113L159.807 75.664ZM150.197 63.2422L150.851 62.485C146.757 58.9536 141.912 56.2747 136.33 54.4406L136.018 55.3906L135.705 56.3407C141.061 58.1002 145.669 60.6558 149.544 63.9993L150.197 63.2422ZM136.018 55.3906L136.346 54.4461C130.835 52.5293 124.746 51.5781 118.088 51.5781V52.5781V53.5781C124.555 53.5781 130.419 54.5019 135.689 56.3351L136.018 55.3906ZM118.088 52.5781V51.5781C106.277 51.5781 96.0364 54.474 87.4107 60.3043L87.9707 61.1328L88.5307 61.9613C96.78 56.3854 106.617 53.5781 118.088 53.5781V52.5781ZM87.9707 61.1328L87.4071 60.3067C78.8649 66.1346 72.3069 74.5413 67.7129 85.4719L68.6348 85.8594L69.5567 86.2468C74.0251 75.615 80.3577 67.5373 88.5343 61.9589L87.9707 61.1328ZM68.6348 85.8594L67.7105 85.4776C63.1944 96.4113 60.9551 109.595 60.9551 125H61.9551H62.9551C62.9551 109.78 65.1689 96.8699 69.559 86.2411L68.6348 85.8594ZM61.9551 125H60.9551C60.9551 141.025 63.2322 154.526 67.8301 165.466L68.752 165.078L69.6738 164.691C65.2092 154.068 62.9551 140.85 62.9551 125H61.9551ZM68.752 165.078L67.8335 165.474C72.5063 176.324 79.0663 184.577 87.5368 190.17L88.0879 189.336L88.639 188.501C80.547 183.158 74.2164 175.239 69.6704 164.683L68.752 165.078ZM88.0879 189.336L87.5459 190.176C96.0896 195.686 106.167 198.422 117.736 198.422V197.422V196.422C106.493 196.422 96.805 193.767 88.6298 188.496L88.0879 189.336ZM117.736 197.422V198.422C124.227 198.422 130.151 197.591 135.496 195.915L135.197 194.961L134.898 194.007C129.775 195.612 124.058 196.422 117.736 196.422V197.422ZM135.197 194.961L135.492 195.916C140.91 194.243 145.67 191.807 149.76 188.599L149.143 187.813L148.525 187.026C144.646 190.068 140.109 192.397 134.902 194.005L135.197 194.961ZM149.143 187.813L149.762 188.598C153.926 185.314 157.331 181.348 159.973 176.705L159.104 176.211L158.234 175.716C155.72 180.136 152.484 183.905 148.523 187.027L149.143 187.813ZM159.104 176.211L159.97 176.71C162.69 171.99 164.563 166.682 165.596 160.798L164.611 160.625L163.626 160.452C162.629 166.13 160.829 171.213 158.237 175.712L159.104 176.211ZM164.611 160.625L164.605 161.625L223.199 161.977L223.205 160.977L223.211 159.977L164.617 159.625L164.611 160.625ZM223.205 160.977L222.21 160.881C221.207 171.374 218.158 181.724 213.053 191.936L213.947 192.383L214.842 192.83C220.049 182.416 223.172 171.829 224.201 161.072L223.205 160.977ZM213.947 192.383L213.05 191.941C208.027 202.141 201.107 211.462 192.28 219.902L192.971 220.625L193.662 221.348C202.647 212.757 209.711 203.249 214.844 192.825L213.947 192.383ZM192.971 220.625L192.283 219.899C183.481 228.238 172.736 234.891 160.029 239.85L160.393 240.781L160.756 241.713C173.674 236.672 184.648 229.887 193.658 221.351L192.971 220.625ZM160.393 240.781L160.027 239.85C147.43 244.796 132.949 247.281 116.564 247.281V248.281V249.281C133.149 249.281 147.886 246.766 160.758 241.712L160.393 240.781ZM116.564 248.281V247.281C94.9972 247.281 75.714 242.55 58.69 233.11L58.2051 233.984L57.7201 234.859C75.0712 244.481 94.6943 249.281 116.564 249.281V248.281ZM58.2051 233.984L58.6948 233.112C41.7609 223.602 28.3759 209.76 18.538 191.556L17.6582 192.031L16.7785 192.507C26.7843 211.021 40.4305 225.148 57.7154 234.856L58.2051 233.984ZM17.6582 192.031L18.538 191.556C8.71302 173.376 3.77539 151.205 3.77539 125H2.77539H1.77539C1.77539 151.452 6.75964 173.968 16.7785 192.507L17.6582 192.031ZM2.77539 125H3.77539C3.77539 98.7189 8.79047 76.511 18.7692 58.3328L17.8926 57.8516L17.016 57.3704C6.83844 75.9108 1.77539 98.4686 1.77539 125H2.77539ZM17.8926 57.8516L18.7692 58.3328C28.7627 40.1275 42.2645 26.3238 59.276 16.8902L58.791 16.0156L58.306 15.1411C40.9425 24.7699 27.1787 38.8569 17.016 57.3704L17.8926 57.8516ZM58.791 16.0156L59.276 16.8902C76.3026 7.44811 95.3912 2.71874 116.564 2.71874V1.71874V0.718741C95.0815 0.718741 75.6544 5.52063 58.306 15.1411L58.791 16.0156ZM116.564 1.71874V2.71874C131.002 2.71874 144.333 4.73675 156.564 8.76238L156.877 7.8125L157.19 6.86262C144.734 2.76324 131.189 0.718741 116.564 0.718741V1.71874ZM156.877 7.8125L156.57 8.76415C168.802 12.7124 179.547 18.5132 188.819 26.162L189.455 25.3906L190.091 24.6192C180.613 16.7992 169.64 10.8814 157.184 6.86085L156.877 7.8125ZM189.455 25.3906L188.823 26.1651C198.089 33.7326 205.622 43.0396 211.421 54.0973L212.307 53.6328L213.192 53.1683C207.273 41.8823 199.571 32.3612 190.088 24.6161L189.455 25.3906ZM212.307 53.6328L211.421 54.0973C217.213 65.1397 220.814 77.7853 222.21 92.0505L223.205 91.9531L224.2 91.8558C222.783 77.3709 219.12 64.4697 213.192 53.1683L212.307 53.6328ZM308.789 245V246H309.524L309.744 245.299L308.789 245ZM246.446 245L245.498 244.68L245.053 246H246.446V245ZM327.422 4.99999V3.99999H326.704L326.475 4.6803L327.422 4.99999ZM404.649 4.99999L405.596 4.6803L405.367 3.99999H404.649V4.99999ZM485.625 245V246H487.018L486.573 244.68L485.625 245ZM423.282 245L422.328 245.3L422.547 246H423.282V245ZM366.914 65.4687L367.869 65.1692L367.649 64.4687H366.914V65.4687ZM365.039 65.4687V64.4687H364.305L364.085 65.1698L365.039 65.4687ZM300.469 150.547V149.547H299.469V150.547H300.469ZM430.782 150.547H431.782V149.547H430.782V150.547ZM430.782 194.609V195.609H431.782V194.609H430.782ZM300.469 194.609H299.469V195.609H300.469V194.609ZM308.789 245V244H246.446V245V246H308.789V245ZM246.446 245L247.393 245.32L328.37 5.31969L327.422 4.99999L326.475 4.6803L245.498 244.68L246.446 245ZM327.422 4.99999V5.99999H404.649V4.99999V3.99999H327.422V4.99999ZM404.649 4.99999L403.701 5.31969L484.678 245.32L485.625 245L486.573 244.68L405.596 4.6803L404.649 4.99999ZM485.625 245V244H423.282V245V246H485.625V245ZM423.282 245L424.236 244.7L367.869 65.1692L366.914 65.4687L365.96 65.7683L422.328 245.3L423.282 245ZM366.914 65.4687V64.4687H365.039V65.4687V66.4687H366.914V65.4687ZM365.039 65.4687L364.085 65.1698L307.835 244.701L308.789 245L309.744 245.299L365.994 65.7677L365.039 65.4687ZM300.469 150.547V151.547H430.782V150.547V149.547H300.469V150.547ZM430.782 150.547H429.782V194.609H430.782H431.782V150.547H430.782ZM430.782 194.609V193.609H300.469V194.609V195.609H430.782V194.609ZM300.469 194.609H301.469V150.547H300.469H299.469V194.609H300.469ZM518.065 4.99999V3.99999H517.065V4.99999H518.065ZM589.901 4.99999L590.826 4.62056L590.572 3.99999H589.901V4.99999ZM650.839 153.594L649.913 153.973L650.168 154.594H650.839V153.594ZM653.651 153.594V154.594H654.322L654.576 153.973L653.651 153.594ZM714.589 4.99999V3.99999H713.918L713.663 4.62056L714.589 4.99999ZM786.425 4.99999H787.425V3.99999H786.425V4.99999ZM786.425 245V246H787.425V245H786.425ZM729.94 245H728.94V246H729.94V245ZM729.94 97.5781H730.94V96.5781H729.94V97.5781ZM727.948 97.5781V96.5781H727.268L727.018 97.2106L727.948 97.5781ZM670.292 243.477V244.477H670.972L671.222 243.844L670.292 243.477ZM634.198 243.477L633.267 243.842L633.517 244.477H634.198V243.477ZM576.542 96.7578L577.473 96.3921L577.223 95.7578H576.542V96.7578ZM574.55 96.7578V95.7578H573.55V96.7578H574.55ZM574.55 245V246H575.55V245H574.55ZM518.065 245H517.065V246H518.065V245ZM518.065 4.99999V5.99999H589.901V4.99999V3.99999H518.065V4.99999ZM589.901 4.99999L588.976 5.37942L649.913 153.973L650.839 153.594L651.764 153.214L590.826 4.62056L589.901 4.99999ZM650.839 153.594V154.594H653.651V153.594V152.594H650.839V153.594ZM653.651 153.594L654.576 153.973L715.514 5.37942L714.589 4.99999L713.663 4.62056L652.726 153.214L653.651 153.594ZM714.589 4.99999V5.99999H786.425V4.99999V3.99999H714.589V4.99999ZM786.425 4.99999H785.425V245H786.425H787.425V4.99999H786.425ZM786.425 245V244H729.94V245V246H786.425V245ZM729.94 245H730.94V97.5781H729.94H728.94V245H729.94ZM729.94 97.5781V96.5781H727.948V97.5781V98.5781H729.94V97.5781ZM727.948 97.5781L727.018 97.2106L669.362 243.109L670.292 243.477L671.222 243.844L728.878 97.9456L727.948 97.5781ZM670.292 243.477V242.477H634.198V243.477V244.477H670.292V243.477ZM634.198 243.477L635.129 243.111L577.473 96.3921L576.542 96.7578L575.611 97.1236L633.267 243.842L634.198 243.477ZM576.542 96.7578V95.7578H574.55V96.7578V97.7578H576.542V96.7578ZM574.55 96.7578H573.55V245H574.55H575.55V96.7578H574.55ZM574.55 245V244H518.065V245V246H574.55V245ZM518.065 245H519.065V4.99999H518.065H517.065V245H518.065ZM829.206 245H828.206V246H829.206V245ZM829.206 4.99999V3.99999H828.206V4.99999H829.206ZM974.87 15.5469L974.396 16.4272L974.402 16.4305L974.87 15.5469ZM1005.22 44.7265L1004.35 45.2209L1004.35 45.2233L1005.22 44.7265ZM1004.99 131.562L1004.12 131.058L1004.12 131.059L1004.99 131.562ZM974.167 160.273L974.621 161.165L974.621 161.165L974.167 160.273ZM865.417 170.469H864.417V171.469H865.417V170.469ZM865.417 124.766V123.766H864.417V124.766H865.417ZM937.722 120.195L937.265 119.306L937.261 119.308L937.722 120.195ZM951.198 107.422L952.072 107.909L952.075 107.903L951.198 107.422ZM951.198 68.8672L950.325 69.3539L950.328 69.3592L951.198 68.8672ZM937.722 56.2109L937.275 57.1054L937.275 57.1054L937.722 56.2109ZM887.214 51.7578V50.7578H886.214V51.7578H887.214ZM887.214 245V246H888.214V245H887.214ZM829.206 245H830.206V4.99999H829.206H828.206V245H829.206ZM829.206 4.99999V5.99999H928.347V4.99999V3.99999H829.206V4.99999ZM928.347 4.99999V5.99999C946.185 5.99999 961.523 9.48953 974.396 16.4272L974.87 15.5469L975.345 14.6666C962.124 7.54171 946.446 3.99999 928.347 3.99999V4.99999ZM974.87 15.5469L974.402 16.4305C987.365 23.2977 997.341 32.8918 1004.35 45.2209L1005.22 44.7265L1006.09 44.2322C998.885 31.5613 988.626 21.7022 975.338 14.6632L974.87 15.5469ZM1005.22 44.7265L1004.35 45.2233C1011.36 57.4723 1014.89 71.749 1014.89 88.0859H1015.89H1016.89C1016.89 71.4541 1013.3 56.8246 1006.09 44.2298L1005.22 44.7265ZM1015.89 88.0859H1014.89C1014.89 104.498 1011.29 118.811 1004.12 131.058L1004.99 131.562L1005.85 132.067C1013.22 119.47 1016.89 104.799 1016.89 88.0859H1015.89ZM1004.99 131.562L1004.12 131.059C997.038 143.228 986.911 152.668 973.714 159.382L974.167 160.273L974.621 161.165C988.143 154.285 998.563 144.584 1005.85 132.066L1004.99 131.562ZM974.167 160.273L973.714 159.382C960.523 166.093 944.826 169.469 926.589 169.469V170.469V171.469C945.071 171.469 961.093 168.047 974.621 161.165L974.167 160.273ZM926.589 170.469V169.469H865.417V170.469V171.469H926.589V170.469ZM865.417 170.469H866.417V124.766H865.417H864.417V170.469H865.417ZM865.417 124.766V125.766H915.808V124.766V123.766H865.417V124.766ZM915.808 124.766V125.766C924.668 125.766 932.143 124.224 938.183 121.083L937.722 120.195L937.261 119.308C931.582 122.261 924.447 123.766 915.808 123.766V124.766ZM937.722 120.195L938.178 121.085C944.28 117.954 948.923 113.561 952.072 107.909L951.198 107.422L950.325 106.935C947.381 112.22 943.039 116.343 937.265 119.306L937.722 120.195ZM951.198 107.422L952.075 107.903C955.215 102.187 956.769 95.5708 956.769 88.0859H955.769H954.769C954.769 95.2886 953.276 101.563 950.322 106.94L951.198 107.422ZM955.769 88.0859H956.769C956.769 80.5258 955.216 73.9431 952.069 68.3751L951.198 68.8672L950.328 69.3592C953.275 74.5725 954.769 80.8023 954.769 88.0859H955.769ZM951.198 68.8672L952.072 68.3805C948.921 62.7252 944.275 58.3695 938.169 55.3165L937.722 56.2109L937.275 57.1054C943.044 59.9899 947.382 64.0717 950.325 69.3539L951.198 68.8672ZM937.722 56.2109L938.169 55.3165C932.057 52.2604 924.589 50.7578 915.808 50.7578V51.7578V52.7578C924.37 52.7578 931.512 54.224 937.275 57.1054L937.722 56.2109ZM915.808 51.7578V50.7578H887.214V51.7578V52.7578H915.808V51.7578ZM887.214 51.7578H886.214V245H887.214H888.214V51.7578H887.214ZM887.214 245V244H829.206V245V246H887.214V245ZM1196.28 4.99999V3.99999H1195.28V4.99999H1196.28ZM1254.17 4.99999H1255.17V3.99999H1254.17V4.99999ZM1241.39 206.562L1242.23 207.105L1242.23 207.102L1241.39 206.562ZM1205.77 237.266L1206.19 238.17L1206.2 238.168L1205.77 237.266ZM1099.24 237.266L1098.81 238.168L1098.82 238.17L1099.24 237.266ZM1063.74 206.562L1062.89 207.099L1062.89 207.101L1063.74 206.562ZM1051.08 4.99999V3.99999H1050.08V4.99999H1051.08ZM1109.09 4.99999H1110.09V3.99999H1109.09V4.99999ZM1114.48 176.914L1113.6 177.399L1113.61 177.407L1114.48 176.914ZM1129.83 192.148L1130.32 191.276L1130.32 191.276L1129.83 192.148ZM1175.42 192.148L1174.93 191.276L1174.92 191.278L1175.42 192.148ZM1196.28 4.99999V5.99999H1254.17V4.99999V3.99999H1196.28V4.99999ZM1254.17 4.99999H1253.17V159.805H1254.17H1255.17V4.99999H1254.17ZM1254.17 159.805H1253.17C1253.17 177.53 1248.95 192.923 1240.55 206.023L1241.39 206.562L1242.23 207.102C1250.87 193.639 1255.17 177.86 1255.17 159.805H1254.17ZM1241.39 206.562L1240.55 206.02C1232.14 219.056 1220.42 229.171 1205.34 236.363L1205.77 237.266L1206.2 238.168C1221.59 230.829 1233.61 220.475 1242.23 207.105L1241.39 206.562ZM1205.77 237.266L1205.34 236.361C1190.26 243.475 1172.72 247.047 1152.68 247.047V248.047V249.047C1172.96 249.047 1190.8 245.432 1206.19 238.17L1205.77 237.266ZM1152.68 248.047V247.047C1132.41 247.047 1114.75 243.474 1099.67 236.361L1099.24 237.266L1098.82 238.17C1114.21 245.432 1132.17 249.047 1152.68 249.047V248.047ZM1099.24 237.266L1099.67 236.363C1084.6 229.171 1072.91 219.057 1064.58 206.024L1063.74 206.562L1062.89 207.101C1071.44 220.474 1083.42 230.829 1098.81 238.168L1099.24 237.266ZM1063.74 206.562L1064.58 206.026C1056.26 192.926 1052.08 177.532 1052.08 159.805H1051.08H1050.08C1050.08 177.859 1054.34 193.636 1062.89 207.099L1063.74 206.562ZM1051.08 159.805H1052.08V4.99999H1051.08H1050.08V159.805H1051.08ZM1051.08 4.99999V5.99999H1109.09V4.99999V3.99999H1051.08V4.99999ZM1109.09 4.99999H1108.09V154.766H1109.09H1110.09V4.99999H1109.09ZM1109.09 154.766H1108.09C1108.09 163.196 1109.92 170.749 1113.6 177.399L1114.48 176.914L1115.35 176.429C1111.85 170.11 1110.09 162.898 1110.09 154.766H1109.09ZM1114.48 176.914L1113.61 177.407C1117.37 184.052 1122.62 189.261 1129.34 193.021L1129.83 192.148L1130.32 191.276C1123.91 187.692 1118.93 182.745 1115.35 176.421L1114.48 176.914ZM1129.83 192.148L1129.34 193.021C1136.07 196.789 1143.86 198.656 1152.68 198.656V197.656V196.656C1144.15 196.656 1136.71 194.852 1130.32 191.276L1129.83 192.148ZM1152.68 197.656V198.656C1161.5 198.656 1169.25 196.789 1175.91 193.019L1175.42 192.148L1174.92 191.278C1168.61 194.852 1161.21 196.656 1152.68 196.656V197.656ZM1175.42 192.148L1175.9 193.021C1182.62 189.261 1187.87 184.052 1191.64 177.407L1190.77 176.914L1189.9 176.421C1186.32 182.745 1181.33 187.692 1174.93 191.276L1175.42 192.148ZM1190.77 176.914L1191.64 177.407C1195.4 170.756 1197.28 163.2 1197.28 154.766H1196.28H1195.28C1195.28 162.894 1193.47 170.103 1189.9 176.421L1190.77 176.914ZM1196.28 154.766H1197.28V4.99999H1196.28H1195.28V154.766H1196.28ZM1426.85 76.9531L1425.85 77.0436L1425.94 77.9531H1426.85V76.9531ZM1416.42 56.9141L1415.8 57.697L1415.81 57.7056L1416.42 56.9141ZM1371.54 52.5781L1371.17 51.6467L1371.17 51.6467L1371.54 52.5781ZM1360.29 60.6641L1361.09 61.2611L1361.1 61.2522L1360.29 60.6641ZM1356.42 72.2656L1357.42 72.3091L1357.42 72.2963L1357.42 72.2835L1356.42 72.2656ZM1358.53 81.7578L1357.66 82.2539L1357.67 82.2632L1357.67 82.2723L1358.53 81.7578ZM1365.56 89.0234L1364.99 89.8456L1365 89.8539L1365.02 89.8619L1365.56 89.0234ZM1376.81 94.4141L1377.15 93.4723L1377.15 93.4723L1376.81 94.4141ZM1391.58 98.5156L1391.8 97.5404L1391.79 97.5378L1391.58 98.5156ZM1412.2 103.203L1411.98 104.178L1411.99 104.18L1412.2 103.203ZM1443.61 113.516L1443.18 114.419L1443.18 114.421L1443.61 113.516ZM1466.58 128.867L1465.88 129.588L1465.89 129.592L1466.58 128.867ZM1480.76 149.375L1479.83 149.758L1479.83 149.758L1480.76 149.375ZM1485.68 175.391L1486.68 175.396L1486.68 175.382L1485.68 175.391ZM1474.19 214.414L1473.37 213.842L1473.37 213.842L1474.19 214.414ZM1441.5 239.375L1441.12 238.449L1441.12 238.449L1441.5 239.375ZM1337.79 239.023L1338.16 238.096L1338.16 238.096L1337.79 239.023ZM1290.21 165.078V164.078H1289.2L1289.21 165.091L1290.21 165.078ZM1345.76 165.078L1346.75 165.018L1346.7 164.078H1345.76V165.078ZM1351.97 184.414L1351.15 184.994L1351.15 184.994L1351.97 184.414ZM1367.08 196.133L1366.7 197.057L1366.7 197.058L1367.08 196.133ZM1409.51 196.953L1409.15 196.018L1409.15 196.02L1409.51 196.953ZM1422.28 188.164L1421.5 187.543L1421.5 187.543L1422.28 188.164ZM1426.85 175.273L1427.85 175.29L1427.85 175.273L1427.85 175.256L1426.85 175.273ZM1422.63 163.672L1421.86 164.312L1421.87 164.321L1422.63 163.672ZM1409.97 155.234L1409.58 156.153L1409.59 156.156L1409.59 156.159L1409.97 155.234ZM1388.41 148.555L1388.18 149.528L1388.19 149.529L1388.41 148.555ZM1363.33 142.695L1363.56 141.722L1363.56 141.721L1363.33 142.695ZM1314.23 119.609L1313.57 120.354L1313.57 120.357L1314.23 119.609ZM1296.42 76.25L1297.42 76.2543L1297.42 76.2447L1296.42 76.25ZM1308.37 37.2266L1307.56 36.6421L1307.56 36.6421L1308.37 37.2266ZM1341.77 11.0938L1342.17 12.0092L1342.17 12.0092L1341.77 11.0938ZM1438.8 11.2109L1438.38 12.1184L1438.39 12.1213L1438.8 11.2109ZM1470.79 37.5781L1471.63 37.0221L1471.63 37.0221L1470.79 37.5781ZM1482.4 76.9531V77.9531H1483.41L1483.4 76.9426L1482.4 76.9531ZM1426.85 76.9531L1427.85 76.8626C1427.04 68.0246 1423.45 61.0773 1417.03 56.1226L1416.42 56.9141L1415.81 57.7056C1421.74 62.2821 1425.09 68.6941 1425.85 77.0436L1426.85 76.9531ZM1416.42 56.9141L1417.04 56.1312C1410.71 51.0954 1401.74 48.6484 1390.29 48.6484V49.6484V50.6484C1401.49 50.6484 1409.95 53.0453 1415.8 57.6969L1416.42 56.9141ZM1390.29 49.6484V48.6484C1382.71 48.6484 1376.33 49.6341 1371.17 51.6467L1371.54 52.5781L1371.9 53.5096C1376.75 51.6159 1382.87 50.6484 1390.29 50.6484V49.6484ZM1371.54 52.5781L1371.17 51.6467C1366.04 53.6512 1362.12 56.4478 1359.48 60.0759L1360.29 60.6641L1361.1 61.2522C1363.46 58.0053 1367.03 55.4113 1371.9 53.5096L1371.54 52.5781ZM1360.29 60.6641L1359.48 60.0671C1356.85 63.6019 1355.5 67.6738 1355.42 72.2478L1356.42 72.2656L1357.42 72.2835C1357.49 68.1074 1358.72 64.4449 1361.09 61.2611L1360.29 60.6641ZM1356.42 72.2656L1355.42 72.2222C1355.26 75.9771 1355.99 79.3333 1357.66 82.2539L1358.53 81.7578L1359.4 81.2617C1357.94 78.7135 1357.27 75.7417 1357.42 72.3091L1356.42 72.2656ZM1358.53 81.7578L1357.67 82.2723C1359.4 85.1468 1361.85 87.6684 1364.99 89.8456L1365.56 89.0234L1366.13 88.2012C1363.18 86.1598 1360.94 83.8376 1359.39 81.2433L1358.53 81.7578ZM1365.56 89.0234L1365.02 89.8619C1368.22 91.9445 1372.04 93.7732 1376.47 95.3558L1376.81 94.4141L1377.15 93.4723C1372.83 91.9299 1369.15 90.1649 1366.11 88.185L1365.56 89.0234ZM1376.81 94.4141L1376.47 95.3558C1380.9 96.9357 1385.86 98.3141 1391.37 99.4934L1391.58 98.5156L1391.79 97.5378C1386.35 96.3734 1381.47 95.0174 1377.15 93.4723L1376.81 94.4141ZM1391.58 98.5156L1391.35 99.4908L1411.98 104.178L1412.2 103.203L1412.42 102.228L1391.8 97.5405L1391.58 98.5156ZM1412.2 103.203L1411.99 104.18C1423.8 106.746 1434.2 110.161 1443.18 114.419L1443.61 113.516L1444.04 112.612C1434.89 108.276 1424.35 104.817 1412.41 102.226L1412.2 103.203ZM1443.61 113.516L1443.18 114.421C1452.24 118.679 1459.8 123.738 1465.88 129.588L1466.58 128.867L1467.27 128.147C1461.01 122.121 1453.25 116.946 1444.03 112.611L1443.61 113.516ZM1466.58 128.867L1465.89 129.592C1472.04 135.436 1476.68 142.156 1479.83 149.758L1480.76 149.375L1481.68 148.992C1478.42 141.125 1473.61 134.173 1467.26 128.142L1466.58 128.867ZM1480.76 149.375L1479.83 149.758C1482.98 157.357 1484.6 165.899 1484.68 175.399L1485.68 175.391L1486.68 175.382C1486.6 165.663 1484.94 156.862 1481.68 148.992L1480.76 149.375ZM1485.68 175.391L1484.68 175.385C1484.6 190.369 1480.82 203.172 1473.37 213.842L1474.19 214.414L1475.01 214.986C1482.72 203.937 1486.6 190.725 1486.68 175.396L1485.68 175.391ZM1474.19 214.414L1473.37 213.842C1465.92 224.519 1455.19 232.728 1441.12 238.449L1441.5 239.375L1441.87 240.301C1456.24 234.459 1467.31 226.028 1475.01 214.986L1474.19 214.414ZM1441.5 239.375L1441.12 238.449C1427.13 244.169 1410.2 247.047 1390.29 247.047V248.047V249.047C1410.38 249.047 1427.58 246.144 1441.88 240.301L1441.5 239.375ZM1390.29 248.047V247.047C1370.31 247.047 1352.94 244.053 1338.16 238.096L1337.79 239.023L1337.41 239.951C1352.48 246.025 1370.11 249.047 1390.29 249.047V248.047ZM1337.79 239.023L1338.16 238.096C1323.41 232.148 1311.97 223.128 1303.81 211.042L1302.98 211.602L1302.15 212.161C1310.56 224.606 1322.32 233.868 1337.41 239.951L1337.79 239.023ZM1302.98 211.602L1303.81 211.042C1295.66 198.976 1291.44 183.672 1291.21 165.066L1290.21 165.078L1289.21 165.091C1289.45 183.984 1293.74 199.696 1302.15 212.161L1302.98 211.602ZM1290.21 165.078V166.078H1345.76V165.078V164.078H1290.21V165.078ZM1345.76 165.078L1344.76 165.139C1345.24 173.018 1347.35 179.654 1351.15 184.994L1351.97 184.414L1352.78 183.834C1349.24 178.861 1347.21 172.607 1346.75 165.018L1345.76 165.078ZM1351.97 184.414L1351.15 184.994C1354.94 190.318 1360.14 194.336 1366.7 197.057L1367.08 196.133L1367.47 195.209C1361.22 192.618 1356.33 188.823 1352.78 183.834L1351.97 184.414ZM1367.08 196.133L1366.7 197.058C1373.33 199.773 1380.97 201.117 1389.58 201.117V200.117V199.117C1381.17 199.117 1373.8 197.805 1367.46 195.207L1367.08 196.133ZM1389.58 200.117V201.117C1397.48 201.117 1404.25 200.052 1409.87 197.886L1409.51 196.953L1409.15 196.02C1403.82 198.073 1397.31 199.117 1389.58 199.117V200.117ZM1409.51 196.953L1409.86 197.888C1415.54 195.73 1419.96 192.707 1423.06 188.785L1422.28 188.164L1421.5 187.543C1418.66 191.122 1414.57 193.958 1409.15 196.018L1409.51 196.953ZM1422.28 188.164L1423.06 188.785C1426.17 184.86 1427.77 180.35 1427.85 175.29L1426.85 175.273L1425.85 175.257C1425.78 179.884 1424.33 183.968 1421.5 187.543L1422.28 188.164ZM1426.85 175.273L1427.85 175.256C1427.77 170.512 1426.29 166.416 1423.39 163.023L1422.63 163.672L1421.87 164.321C1424.44 167.334 1425.78 170.973 1425.85 175.291L1426.85 175.273ZM1422.63 163.672L1423.4 163.032C1420.52 159.582 1416.15 156.689 1410.35 154.309L1409.97 155.234L1409.59 156.159C1415.21 158.467 1419.27 161.199 1421.86 164.312L1422.63 163.672ZM1409.97 155.234L1410.37 154.316C1404.67 151.862 1397.42 149.62 1388.64 147.581L1388.41 148.555L1388.19 149.529C1396.9 151.552 1404.03 153.763 1409.58 156.153L1409.97 155.234ZM1388.41 148.555L1388.64 147.581L1363.56 141.722L1363.33 142.695L1363.11 143.669L1388.18 149.528L1388.41 148.555ZM1363.33 142.695L1363.56 141.721C1342.89 136.98 1326.69 129.344 1314.9 118.862L1314.23 119.609L1313.57 120.357C1325.68 131.124 1342.22 138.879 1363.11 143.67L1363.33 142.695ZM1314.23 119.609L1314.9 118.864C1303.19 108.379 1297.34 94.2142 1297.42 76.2543L1296.42 76.25L1295.42 76.2457C1295.34 94.692 1301.37 109.434 1313.57 120.354L1314.23 119.609ZM1296.42 76.25L1297.42 76.2447C1297.34 61.5951 1301.27 48.7975 1309.18 37.811L1308.37 37.2266L1307.56 36.6421C1299.38 47.9993 1295.34 61.2174 1295.42 76.2553L1296.42 76.25ZM1308.37 37.2266L1309.18 37.811C1317.11 26.8019 1328.1 18.1968 1342.17 12.0092L1341.77 11.0938L1341.37 10.1783C1327.01 16.4907 1315.73 25.3075 1307.56 36.6421L1308.37 37.2266ZM1341.77 11.0938L1342.17 12.0092C1356.25 5.82372 1372.32 2.71874 1390.4 2.71874V1.71874V0.718741C1372.09 0.718741 1355.73 3.86377 1341.37 10.1783L1341.77 11.0938ZM1390.4 1.71874V2.71874C1408.89 2.71874 1424.87 5.86378 1438.38 12.1184L1438.8 11.2109L1439.22 10.3034C1425.39 3.90182 1409.11 0.718741 1390.4 0.718741V1.71874ZM1438.8 11.2109L1438.39 12.1213C1451.99 18.3029 1462.5 26.9771 1469.96 38.1342L1470.79 37.5781L1471.63 37.0221C1463.93 25.5229 1453.12 16.619 1439.22 10.3006L1438.8 11.2109ZM1470.79 37.5781L1469.96 38.1342C1477.42 49.2854 1481.24 62.2169 1481.4 76.9636L1482.4 76.9531L1483.4 76.9426C1483.24 61.8456 1479.32 48.5271 1471.63 37.0221L1470.79 37.5781ZM1482.4 76.9531V75.9531H1426.85V76.9531V77.9531H1482.4V76.9531ZM196.199 559.953L195.324 559.469L195.324 559.469L196.199 559.953ZM158.699 597.986L158.218 597.109L158.216 597.11L158.699 597.986ZM52.9109 597.879L53.3972 597.005L53.3972 597.005L52.9109 597.879ZM15.5174 559.847L14.6408 560.328L14.6432 560.332L15.5174 559.847ZM15.5174 437.865L14.6424 437.381L14.6408 437.384L15.5174 437.865ZM52.9109 399.832L53.3942 400.708L53.3942 400.708L52.9109 399.832ZM158.699 399.832L158.216 400.708L158.218 400.709L158.699 399.832ZM196.199 437.865L195.324 438.349L195.324 438.349L196.199 437.865ZM150.07 462.901L149.143 463.277L149.146 463.282L150.07 462.901ZM132.811 440.635L132.251 441.463L132.255 441.466L132.811 440.635ZM78.9052 440.635L79.4617 441.466L79.4617 441.466L78.9052 440.635ZM61.5401 462.901L60.6159 462.519L60.6135 462.525L61.5401 462.901ZM61.5401 534.918L60.6135 535.294L60.6159 535.299L61.5401 534.918ZM78.9052 557.183L79.4617 556.352L79.4617 556.352L78.9052 557.183ZM132.811 557.183L132.255 556.352L132.251 556.355L132.811 557.183ZM150.07 534.918L149.146 534.536L149.143 534.542L150.07 534.918ZM210.049 498.909H209.049C209.049 522.788 204.457 542.96 195.324 559.469L196.199 559.953L197.074 560.437C206.408 543.565 211.049 523.041 211.049 498.909H210.049ZM196.199 559.953L195.324 559.469C186.177 576.005 173.809 588.541 158.218 597.109L158.699 597.986L159.181 598.862C175.124 590.101 187.756 577.282 197.074 560.437L196.199 559.953ZM158.699 597.986L158.216 597.11C142.681 605.686 125.236 609.983 105.858 609.983V610.983V611.983C125.543 611.983 143.326 607.615 159.183 598.861L158.699 597.986ZM105.858 610.983V609.983C86.4103 609.983 68.9312 605.651 53.3972 597.005L52.9109 597.879L52.4246 598.753C68.2826 607.579 86.1018 611.983 105.858 611.983V610.983ZM52.9109 597.879L53.3972 597.005C37.8738 588.366 25.5395 575.827 16.3916 559.361L15.5174 559.847L14.6432 560.332C23.9612 577.105 36.5559 589.921 52.4246 598.753L52.9109 597.879ZM15.5174 559.847L16.394 559.365C7.33127 542.856 2.7745 522.718 2.7745 498.909H1.7745H0.774503C0.774503 522.969 5.37967 543.457 14.6408 560.328L15.5174 559.847ZM1.7745 498.909H2.7745C2.7745 475.029 7.33149 454.856 16.394 438.346L15.5174 437.865L14.6408 437.384C5.37945 454.255 0.774503 474.778 0.774503 498.909H1.7745ZM15.5174 437.865L16.3924 438.349C25.5403 421.813 37.8736 409.276 53.3942 400.708L52.9109 399.832L52.4276 398.957C36.5561 407.719 23.9604 420.537 14.6424 437.381L15.5174 437.865ZM52.9109 399.832L53.3942 400.708C68.9287 392.132 86.4089 387.835 105.858 387.835V386.835V385.835C86.1032 385.835 68.2851 390.203 52.4276 398.957L52.9109 399.832ZM105.858 386.835V387.835C125.236 387.835 142.681 392.132 158.216 400.708L158.699 399.832L159.183 398.957C143.326 390.203 125.543 385.835 105.858 385.835V386.835ZM158.699 399.832L158.218 400.709C173.809 409.277 186.177 421.814 195.324 438.349L196.199 437.865L197.074 437.381C187.756 420.536 175.124 407.717 159.181 398.956L158.699 399.832ZM196.199 437.865L195.324 438.349C204.457 454.858 209.049 475.03 209.049 498.909H210.049H211.049C211.049 474.777 206.408 454.253 197.074 437.381L196.199 437.865ZM156.142 498.909H157.142C157.142 484.616 155.106 472.475 150.994 462.519L150.07 462.901L149.146 463.282C153.13 472.929 155.142 484.794 155.142 498.909H156.142ZM150.07 462.901L150.997 462.525C146.957 452.57 141.089 444.976 133.368 439.804L132.811 440.635L132.255 441.466C139.591 446.38 145.228 453.629 149.143 463.277L150.07 462.901ZM132.811 440.635L133.372 439.807C125.723 434.634 116.535 432.071 105.858 432.071V433.071V434.071C116.204 434.071 124.986 436.55 132.251 441.463L132.811 440.635ZM105.858 433.071V432.071C95.2508 432.071 86.0657 434.635 78.3487 439.804L78.9052 440.635L79.4617 441.466C86.8015 436.55 95.5851 434.071 105.858 434.071V433.071ZM78.9052 440.635L78.3487 439.804C70.6295 444.974 64.7265 452.567 60.6159 462.519L61.5401 462.901L62.4644 463.282C66.4503 453.632 72.124 446.381 79.4617 441.466L78.9052 440.635ZM61.5401 462.901L60.6135 462.525C56.5743 472.478 54.5742 484.617 54.5742 498.909H55.5742H56.5742C56.5742 484.792 58.5515 472.925 62.4667 463.277L61.5401 462.901ZM55.5742 498.909H54.5742C54.5742 513.201 56.5743 525.34 60.6135 535.294L61.5401 534.918L62.4667 534.542C58.5515 524.893 56.5742 513.026 56.5742 498.909H55.5742ZM61.5401 534.918L60.6159 535.299C64.7265 545.251 70.6295 552.844 78.3487 558.014L78.9052 557.183L79.4617 556.352C72.124 551.438 66.4503 544.186 62.4644 534.536L61.5401 534.918ZM78.9052 557.183L78.3487 558.014C86.0657 563.183 95.2508 565.747 105.858 565.747V564.747V563.747C95.5851 563.747 86.8015 561.269 79.4617 556.352L78.9052 557.183ZM105.858 564.747V565.747C116.535 565.747 125.723 563.184 133.372 558.012L132.811 557.183L132.251 556.355C124.986 561.268 116.204 563.747 105.858 563.747V564.747ZM132.811 557.183L133.368 558.014C141.089 552.843 146.957 545.248 150.997 535.294L150.07 534.918L149.143 534.542C145.228 544.189 139.591 551.439 132.255 556.352L132.811 557.183ZM150.07 534.918L150.994 535.299C155.106 525.344 157.142 513.203 157.142 498.909H156.142H155.142C155.142 513.025 153.13 524.889 149.146 534.536L150.07 534.918ZM426.526 389.818H427.526V388.818H426.526V389.818ZM426.526 608V609H427.526V608H426.526ZM381.782 608L380.958 608.568L381.256 609H381.782V608ZM294.956 482.077L295.78 481.509L295.481 481.077H294.956V482.077ZM293.571 482.077V481.077H292.571V482.077H293.571ZM293.571 608V609H294.571V608H293.571ZM240.837 608H239.837V609H240.837V608ZM240.837 389.818V388.818H239.837V389.818H240.837ZM286.221 389.818L287.046 389.254L286.748 388.818H286.221V389.818ZM372.087 515.528L371.261 516.092L371.559 516.528H372.087V515.528ZM373.898 515.528V516.528H374.898V515.528H373.898ZM373.898 389.818V388.818H372.898V389.818H373.898ZM426.526 389.818H425.526V608H426.526H427.526V389.818H426.526ZM426.526 608V607H381.782V608V609H426.526V608ZM381.782 608L382.605 607.432L295.78 481.509L294.956 482.077L294.133 482.644L380.958 608.568L381.782 608ZM294.956 482.077V481.077H293.571V482.077V483.077H294.956V482.077ZM293.571 482.077H292.571V608H293.571H294.571V482.077H293.571ZM293.571 608V607H240.837V608V609H293.571V608ZM240.837 608H241.837V389.818H240.837H239.837V608H240.837ZM240.837 389.818V390.818H286.221V389.818V388.818H240.837V389.818ZM286.221 389.818L285.395 390.382L371.261 516.092L372.087 515.528L372.913 514.964L287.046 389.254L286.221 389.818ZM372.087 515.528V516.528H373.898V515.528V514.528H372.087V515.528ZM373.898 515.528H374.898V389.818H373.898H372.898V515.528H373.898ZM373.898 389.818V390.818H426.526V389.818V388.818H373.898V389.818ZM722.185 468.866V469.866H723.287L723.18 468.769L722.185 468.866ZM668.918 468.866L667.926 468.995L668.039 469.866H668.918V468.866ZM664.55 454.058L663.655 454.505L663.655 454.505L664.55 454.058ZM655.814 442.766L656.467 442.008L656.467 442.008L655.814 442.766ZM642.923 435.628L642.595 436.572L642.603 436.575L642.611 436.578L642.923 435.628ZM599.244 440.848L598.684 440.02L598.681 440.022L599.244 440.848ZM581.666 463.327L580.744 462.939L580.742 462.945L581.666 463.327ZM581.773 535.344L580.851 535.731L580.854 535.739L581.773 535.344ZM599.351 557.396L598.8 558.231L598.809 558.237L599.351 557.396ZM642.178 562.51L641.882 561.554L641.878 561.556L642.178 562.51ZM654.855 556.011L655.472 556.798L655.474 556.797L654.855 556.011ZM663.911 545.464L663.044 544.965L663.041 544.97L663.911 545.464ZM668.918 531.295L668.924 530.295L668.079 530.29L667.933 531.122L668.918 531.295ZM722.185 531.615L723.18 531.71L723.284 530.622L722.191 530.615L722.185 531.615ZM713.768 560.166L712.874 559.719L712.871 559.724L713.768 560.166ZM694.699 585.841L695.387 586.567L695.39 586.564L694.699 585.841ZM665.082 604.165L664.719 603.233L664.717 603.234L665.082 604.165ZM572.185 597.986L571.695 598.858L571.7 598.86L572.185 597.986ZM535.324 559.847L536.204 559.371L535.324 559.847ZM535.537 437.865L534.66 437.384L534.66 437.384L535.537 437.865ZM661.886 392.375L661.574 393.325L661.579 393.327L661.886 392.375ZM691.503 408.355L690.866 409.126L690.87 409.13L691.503 408.355ZM722.185 468.866V467.866H668.918V468.866V469.866H722.185V468.866ZM668.918 468.866L669.909 468.738C669.186 463.171 667.701 458.126 665.444 453.611L664.55 454.058L663.655 454.505C665.801 458.798 667.228 463.624 667.926 468.995L668.918 468.866ZM664.55 454.058L665.444 453.611C663.185 449.093 660.192 445.222 656.467 442.008L655.814 442.766L655.161 443.523C658.68 446.559 661.511 450.217 663.655 454.505L664.55 454.058ZM655.814 442.766L656.467 442.008C652.736 438.79 648.321 436.349 643.235 434.678L642.923 435.628L642.611 436.578C647.469 438.174 651.647 440.492 655.161 443.523L655.814 442.766ZM642.923 435.628L643.252 434.683C638.231 432.937 632.685 432.071 626.624 432.071V433.071V434.071C632.494 434.071 637.814 434.91 642.595 436.572L642.923 435.628ZM626.624 433.071V432.071C615.871 432.071 606.543 434.708 598.684 440.02L599.244 440.848L599.804 441.676C607.287 436.619 616.211 434.071 626.624 434.071V433.071ZM599.244 440.848L598.681 440.022C590.899 445.331 584.926 452.989 580.744 462.939L581.666 463.327L582.588 463.714C586.645 454.062 592.391 446.734 599.808 441.674L599.244 440.848ZM581.666 463.327L580.742 462.945C576.631 472.899 574.594 484.897 574.594 498.909H575.594H576.594C576.594 485.081 578.605 473.357 582.59 463.708L581.666 463.327ZM575.594 498.909H574.594C574.594 513.485 576.665 525.772 580.851 535.731L581.773 535.344L582.695 534.956C578.642 525.314 576.594 513.31 576.594 498.909H575.594ZM581.773 535.344L580.854 535.739C585.108 545.617 591.082 553.134 598.8 558.231L599.351 557.396L599.902 556.562C592.563 551.715 586.818 544.531 582.691 534.948L581.773 535.344ZM599.351 557.396L598.809 558.237C606.593 563.256 615.771 565.747 626.304 565.747V564.747V563.747C616.098 563.747 607.308 561.338 599.893 556.556L599.351 557.396ZM626.304 564.747V565.747C632.213 565.747 637.607 564.991 642.477 563.464L642.178 562.51L641.878 561.556C637.231 563.012 632.043 563.747 626.304 563.747V564.747ZM642.178 562.51L642.473 563.465C647.407 561.941 651.745 559.722 655.472 556.798L654.855 556.011L654.238 555.225C650.721 557.983 646.607 560.096 641.882 561.554L642.178 562.51ZM654.855 556.011L655.474 556.797C659.27 553.804 662.373 550.19 664.78 545.959L663.911 545.464L663.041 544.97C660.761 548.978 657.827 552.395 654.236 555.226L654.855 556.011ZM663.911 545.464L664.777 545.964C667.256 541.663 668.961 536.827 669.903 531.468L668.918 531.295L667.933 531.122C667.027 536.275 665.395 540.886 663.044 544.965L663.911 545.464ZM668.918 531.295L668.912 532.295L722.179 532.615L722.185 531.615L722.191 530.615L668.924 530.295L668.918 531.295ZM722.185 531.615L721.189 531.52C720.279 541.047 717.511 550.445 712.874 559.719L713.768 560.166L714.663 560.613C719.401 551.137 722.244 541.501 723.18 531.71L722.185 531.615ZM713.768 560.166L712.871 559.724C708.31 568.987 702.026 577.452 694.008 585.118L694.699 585.841L695.39 586.564C703.565 578.747 709.994 570.095 714.666 560.608L713.768 560.166ZM694.699 585.841L694.011 585.115C686.019 592.686 676.261 598.729 664.719 603.233L665.082 604.165L665.446 605.096C677.199 600.51 687.186 594.336 695.387 586.567L694.699 585.841ZM665.082 604.165L664.717 603.234C653.278 607.725 640.124 609.983 625.239 609.983V610.983V611.983C640.325 611.983 653.734 609.695 665.448 605.096L665.082 604.165ZM625.239 610.983V609.983C605.646 609.983 588.131 605.685 572.67 597.111L572.185 597.986L571.7 598.86C587.488 607.616 605.343 611.983 625.239 611.983V610.983ZM572.185 597.986L572.674 597.114C557.296 588.477 545.14 575.906 536.204 559.371L535.324 559.847L534.444 560.322C543.548 577.168 555.965 590.023 571.695 598.858L572.185 597.986ZM535.324 559.847L536.204 559.371C527.281 542.86 522.794 522.72 522.794 498.909H521.794H520.794C520.794 522.967 525.327 543.452 534.444 560.322L535.324 559.847ZM521.794 498.909H522.794C522.794 475.029 527.351 454.856 536.414 438.346L535.537 437.865L534.66 437.384C525.399 454.255 520.794 474.778 520.794 498.909H521.794ZM535.537 437.865L536.414 438.346C545.491 421.81 557.753 409.274 573.202 400.707L572.717 399.832L572.232 398.958C556.431 407.72 543.907 420.539 534.66 437.384L535.537 437.865ZM572.717 399.832L573.202 400.707C588.666 392.131 606.004 387.835 625.239 387.835V386.835V385.835C605.695 385.835 588.018 390.204 572.232 398.958L572.717 399.832ZM625.239 386.835V387.835C638.355 387.835 650.464 389.669 661.574 393.325L661.886 392.375L662.199 391.425C650.865 387.695 638.543 385.835 625.239 385.835V386.835ZM661.886 392.375L661.579 393.327C672.689 396.913 682.448 402.181 690.866 409.126L691.503 408.355L692.139 407.584C683.513 400.467 673.527 395.082 662.194 391.423L661.886 392.375ZM691.503 408.355L690.87 409.13C699.284 416.001 706.125 424.452 711.391 434.494L712.277 434.03L713.163 433.565C707.776 423.295 700.767 414.63 692.135 407.581L691.503 408.355ZM712.277 434.03L711.391 434.494C716.65 444.521 719.922 456.006 721.189 468.964L722.185 468.866L723.18 468.769C721.891 455.591 718.557 443.851 713.163 433.565L712.277 434.03ZM752.36 608H751.36V609H752.36V608ZM752.36 389.818V388.818H751.36V389.818H752.36ZM805.095 389.818H806.095V388.818H805.095V389.818ZM805.095 477.389H804.095V478.389H805.095V477.389ZM891.068 477.389V478.389H892.068V477.389H891.068ZM891.068 389.818V388.818H890.068V389.818H891.068ZM943.696 389.818H944.696V388.818H943.696V389.818ZM943.696 608V609H944.696V608H943.696ZM891.068 608H890.068V609H891.068V608ZM891.068 520.322H892.068V519.322H891.068V520.322ZM805.095 520.322V519.322H804.095V520.322H805.095ZM805.095 608V609H806.095V608H805.095ZM752.36 608H753.36V389.818H752.36H751.36V608H752.36ZM752.36 389.818V390.818H805.095V389.818V388.818H752.36V389.818ZM805.095 389.818H804.095V477.389H805.095H806.095V389.818H805.095ZM805.095 477.389V478.389H891.068V477.389V476.389H805.095V477.389ZM891.068 477.389H892.068V389.818H891.068H890.068V477.389H891.068ZM891.068 389.818V390.818H943.696V389.818V388.818H891.068V389.818ZM943.696 389.818H942.696V608H943.696H944.696V389.818H943.696ZM943.696 608V607H891.068V608V609H943.696V608ZM891.068 608H892.068V520.322H891.068H890.068V608H891.068ZM891.068 520.322V519.322H805.095V520.322V521.322H891.068V520.322ZM805.095 520.322H804.095V608H805.095H806.095V520.322H805.095ZM805.095 608V607H752.36V608V609H805.095V608ZM1023.97 608V609H1024.7L1024.92 608.299L1023.97 608ZM967.293 608L966.345 607.68L965.9 609H967.293V608ZM1040.91 389.818V388.818H1040.19L1039.96 389.498L1040.91 389.818ZM1111.11 389.818L1112.06 389.498L1111.83 388.818H1111.11V389.818ZM1184.73 608V609H1186.12L1185.68 607.68L1184.73 608ZM1128.05 608L1127.1 608.3L1127.32 609H1128.05V608ZM1076.81 444.79L1077.76 444.49L1077.54 443.79H1076.81V444.79ZM1075.11 444.79V443.79H1074.37L1074.15 444.491L1075.11 444.79ZM1016.41 522.134V521.134H1015.41V522.134H1016.41ZM1134.87 522.134H1135.87V521.134H1134.87V522.134ZM1134.87 562.19V563.19H1135.87V562.19H1134.87ZM1016.41 562.19H1015.41V563.19H1016.41V562.19ZM1023.97 608V607H967.293V608V609H1023.97V608ZM967.293 608L968.24 608.32L1041.86 390.138L1040.91 389.818L1039.96 389.498L966.345 607.68L967.293 608ZM1040.91 389.818V390.818H1111.11V389.818V388.818H1040.91V389.818ZM1111.11 389.818L1110.17 390.138L1183.78 608.32L1184.73 608L1185.68 607.68L1112.06 389.498L1111.11 389.818ZM1184.73 608V607H1128.05V608V609H1184.73V608ZM1128.05 608L1129.01 607.7L1077.76 444.49L1076.81 444.79L1075.86 445.089L1127.1 608.3L1128.05 608ZM1076.81 444.79V443.79H1075.11V444.79V445.79H1076.81V444.79ZM1075.11 444.79L1074.15 444.491L1023.01 607.701L1023.97 608L1024.92 608.299L1076.06 445.089L1075.11 444.79ZM1016.41 522.134V523.134H1134.87V522.134V521.134H1016.41V522.134ZM1134.87 522.134H1133.87V562.19H1134.87H1135.87V522.134H1134.87ZM1134.87 562.19V561.19H1016.41V562.19V563.19H1134.87V562.19ZM1016.41 562.19H1017.41V522.134H1016.41H1015.41V562.19H1016.41ZM1260.95 389.818H1261.95V388.818H1260.95V389.818ZM1260.95 608V609H1261.95V608H1260.95ZM1208.22 608H1207.22V609H1208.22V608ZM1208.22 389.818V388.818H1207.22V389.818H1208.22ZM1260.95 389.818H1259.95V608H1260.95H1261.95V389.818H1260.95ZM1260.95 608V607H1208.22V608V609H1260.95V608ZM1208.22 608H1209.22V389.818H1208.22H1207.22V608H1208.22ZM1208.22 389.818V390.818H1260.95V389.818V388.818H1208.22V389.818ZM1479.75 389.818H1480.75V388.818H1479.75V389.818ZM1479.75 608V609H1480.75V608H1479.75ZM1435 608L1434.18 608.568L1434.48 609H1435V608ZM1348.18 482.077L1349 481.509L1348.7 481.077H1348.18V482.077ZM1346.79 482.077V481.077H1345.79V482.077H1346.79ZM1346.79 608V609H1347.79V608H1346.79ZM1294.06 608H1293.06V609H1294.06V608ZM1294.06 389.818V388.818H1293.06V389.818H1294.06ZM1339.44 389.818L1340.27 389.254L1339.97 388.818H1339.44V389.818ZM1425.31 515.528L1424.48 516.092L1424.78 516.528H1425.31V515.528ZM1427.12 515.528V516.528H1428.12V515.528H1427.12ZM1427.12 389.818V388.818H1426.12V389.818H1427.12ZM1479.75 389.818H1478.75V608H1479.75H1480.75V389.818H1479.75ZM1479.75 608V607H1435V608V609H1479.75V608ZM1435 608L1435.83 607.432L1349 481.509L1348.18 482.077L1347.36 482.644L1434.18 608.568L1435 608ZM1348.18 482.077V481.077H1346.79V482.077V483.077H1348.18V482.077ZM1346.79 482.077H1345.79V608H1346.79H1347.79V482.077H1346.79ZM1346.79 608V607H1294.06V608V609H1346.79V608ZM1294.06 608H1295.06V389.818H1294.06H1293.06V608H1294.06ZM1294.06 389.818V390.818H1339.44V389.818V388.818H1294.06V389.818ZM1339.44 389.818L1338.62 390.382L1424.48 516.092L1425.31 515.528L1426.14 514.964L1340.27 389.254L1339.44 389.818ZM1425.31 515.528V516.528H1427.12V515.528V514.528H1425.31V515.528ZM1427.12 515.528H1428.12V389.818H1427.12H1426.12V515.528H1427.12ZM1427.12 389.818V390.818H1479.75V389.818V388.818H1427.12V389.818Z" fill="black" fill-opacity="0.2" mask="url(#path-1-outside-1_126_12)"/>
</svg>
